<?xml version="1.0" encoding="UTF-8"?>
<svg id="Layer_1" data-name="Layer 1" xmlns="http://www.w3.org/2000/svg" version="1.1" viewBox="0 0 679.1 199.1">
  <defs>
    <style>
      .cls-1 {
        fill: #ecd5b0;
      }

      .cls-1, .cls-2, .cls-3, .cls-4, .cls-5, .cls-6, .cls-7 {
        stroke-width: 0px;
      }

      .cls-8, .cls-5 {
        isolation: isolate;
      }

      .cls-2 {
        fill: #b4e0dc;
      }

      .cls-3 {
        fill: #fdf5ba;
      }

      .cls-4 {
        fill: #fff;
      }

      .cls-5 {
        fill: #000;
        opacity: .5;
      }

      .cls-6 {
        fill: #a5c8ea;
      }

      .cls-7 {
        fill: #b3d8b3;
      }
    </style>
  </defs>
  <polygon class="cls-5" points="679.1 31.3 665.7 20.1 679.1 8.8 679.1 0 0 0 0 199.1 679.1 199.1 679.1 76.4 665.7 65.2 679.1 53.9 665.7 42.6 679.1 31.3"/>
  <rect class="cls-6" y="0" width="97.3" height="35.8"/>
  <rect class="cls-3" y="40.8" width="97.3" height="35.8"/>
  <rect class="cls-7" y="81.7" width="97.3" height="35.8"/>
  <rect class="cls-1" y="122.5" width="97.3" height="35.8"/>
  <rect class="cls-2" y="163.3" width="97.3" height="35.8"/>
  <g class="cls-8">
    <g class="cls-8">
      <path class="cls-4" d="M124.5,102v-15.1l-7.3-30.8h9.1l2.6,15.5,2.6-15.5h9.1l-7.3,30.8v15.1h-8.7Z"/>
      <path class="cls-4" d="M153.7,102.4c-3.7,0-6.5-1.1-8.4-3.3-1.9-2.2-2.9-5.4-2.9-9.6v-21.8c0-3.9,1-6.9,2.9-8.9,1.9-2,4.7-3.1,8.4-3.1s6.5,1,8.4,3.1c1.9,2,2.9,5,2.9,8.9v21.8c0,4.2-1,7.4-2.9,9.6-1.9,2.2-4.7,3.3-8.4,3.3ZM153.8,94c1.4,0,2.1-1.3,2.1-4v-22.4c0-2.3-.7-3.4-2-3.4s-2.3,1.2-2.3,3.5v22.4c0,1.4.2,2.4.5,3.1.3.6.9.9,1.7.9Z"/>
      <path class="cls-4" d="M179.3,102.4c-3.8,0-6.6-1.1-8.4-3.2s-2.7-5.3-2.7-9.5v-33.6h8.9v33.2c0,.8,0,1.5.1,2.2,0,.7.3,1.3.6,1.7.3.5.8.7,1.5.7s1.2-.2,1.5-.7c.3-.4.5-1,.6-1.7s.1-1.5.1-2.2v-33.2h8.9v33.6c0,4.2-.9,7.3-2.7,9.5-1.8,2.1-4.6,3.2-8.4,3.2Z"/>
      <path class="cls-4" d="M194.9,69.6l1.7-6.2h-3.3v-7.8h9.8v7.5l-2.7,6.4h-5.5Z"/>
      <path class="cls-4" d="M206.4,102v-45.9h14.1c2.3,0,4.1.5,5.3,1.6,1.2,1.1,2,2.6,2.4,4.5.4,1.9.6,4.2.6,6.8s-.3,4.5-1,6c-.6,1.5-1.8,2.5-3.6,3.1,1.4.3,2.5,1,3,2.2.6,1.1.9,2.6.9,4.4v17.4h-9v-18c0-1.3-.3-2.2-.8-2.5-.5-.3-1.4-.5-2.6-.5v20.9h-9.3ZM215.7,73.1h2.2c1.3,0,1.9-1.4,1.9-4.1s-.1-3-.4-3.5-.8-.8-1.6-.8h-2.1v8.5Z"/>
      <path class="cls-4" d="M231.9,102v-45.9h18.4v8.9h-9v8.9h8.7v8.6h-8.7v10.5h9.6v8.9h-19Z"/>
      <path class="cls-4" d="M265.1,102l4.4-45.9h15.6l4.4,45.9h-8.7l-.7-7.4h-5.5l-.6,7.4h-8.9ZM275.2,87.3h4.2l-2-23.3h-.4l-1.7,23.3Z"/>
      <path class="cls-4" d="M292.3,102v-45.9h9.2v38.1h9.4v7.8h-18.6Z"/>
      <path class="cls-4" d="M313.5,102v-45.9h9.2v38.1h9.4v7.8h-18.6Z"/>
      <path class="cls-4" d="M347.2,102v-45.9h12.4c3.3,0,5.8.8,7.3,2.4,1.5,1.6,2.3,4.3,2.3,8v2c0,2.2-.4,3.9-1.2,5.2-.8,1.3-2,2.2-3.5,2.6,2.1.5,3.5,1.7,4.2,3.7s1.1,4.3,1.1,7-.3,5.6-.8,7.8c-.6,2.2-1.6,4-3,5.2-1.5,1.2-3.5,1.9-6.2,1.9h-12.4ZM356.2,73.4h1.9c.9,0,1.4-.3,1.6-1,.2-.7.4-1.5.4-2.4v-4.6c0-1.5-.7-2.2-2-2.2h-1.9v10.2ZM357.1,93.9c2.4,0,3.6-1.1,3.6-3.4v-5.7c0-1.3-.2-2.3-.6-3.1-.4-.8-1.1-1.1-2.2-1.1h-1.7v13.3c.4,0,.7,0,.9,0Z"/>
      <path class="cls-4" d="M383.7,102.4c-3.7,0-6.5-1.1-8.4-3.3-1.9-2.2-2.9-5.4-2.9-9.6v-21.8c0-3.9,1-6.9,2.9-8.9,1.9-2,4.7-3.1,8.4-3.1s6.5,1,8.4,3.1c1.9,2,2.9,5,2.9,8.9v21.8c0,4.2-1,7.4-2.9,9.6-1.9,2.2-4.7,3.3-8.4,3.3ZM383.8,94c1.4,0,2.1-1.3,2.1-4v-22.4c0-2.3-.7-3.4-2-3.4s-2.3,1.2-2.3,3.5v22.4c0,1.4.2,2.4.5,3.1s.9.9,1.7.9Z"/>
      <path class="cls-4" d="M409.7,102.4c-3.7,0-6.5-1.1-8.4-3.3-1.9-2.2-2.9-5.4-2.9-9.6v-21.8c0-3.9,1-6.9,2.9-8.9,1.9-2,4.7-3.1,8.4-3.1s6.5,1,8.4,3.1c1.9,2,2.9,5,2.9,8.9v21.8c0,4.2-1,7.4-2.9,9.6-1.9,2.2-4.7,3.3-8.4,3.3ZM409.8,94c1.4,0,2.1-1.3,2.1-4v-22.4c0-2.3-.7-3.4-2-3.4s-2.3,1.2-2.3,3.5v22.4c0,1.4.2,2.4.5,3.1.3.6.9.9,1.7.9Z"/>
      <path class="cls-4" d="M424.7,102v-45.9h9.1v18.4l4.3-18.4h9.2l-5.1,21,6.2,24.9h-9.5l-5-22.2v22.2h-9.1Z"/>
      <path class="cls-4" d="M449.9,102v-45.9h18.4v8.9h-9v8.9h8.7v8.6h-8.7v10.5h9.6v8.9h-19Z"/>
      <path class="cls-4" d="M471.9,102v-45.9h12.6c3.3,0,5.8.9,7.5,2.8s2.5,4.5,2.5,8v21.5c0,4.3-.8,7.7-2.3,10.1-1.5,2.4-4.2,3.5-8,3.5h-12.3ZM481.2,93.9h1.6c1.7,0,2.5-.8,2.5-2.5v-23.7c0-1.5-.2-2.5-.6-3-.4-.4-1.2-.7-2.5-.7h-1v29.8Z"/>
      <path class="cls-4" d="M510.4,102v-45.9h8.9v45.9h-8.9Z"/>
      <path class="cls-4" d="M522.9,102v-45.9h9.4l4.2,22v-22h8.9v45.9h-9l-4.6-22.9v22.9h-9Z"/>
      <path class="cls-4" d="M550.7,89.5l-1.8-33.4h9.3l-1.8,33.4h-5.7ZM548.9,102v-7.8h9.3v7.8h-9.3Z"/>
    </g>
  </g>
  <g class="cls-8">
    <g class="cls-8">
      <path class="cls-4" d="M118.9,154.7v-45.9h18.4v8.9h-9v8.9h8.7v8.6h-8.7v10.5h9.6v8.9h-19Z"/>
      <path class="cls-4" d="M140.9,154.7v-45.9h14l3.9,28,3.8-28h14.1v45.9h-8.4v-33.1l-5.3,33.1h-8.2l-5.6-33.1v33.1h-8.3Z"/>
      <path class="cls-4" d="M179.5,154.7l4.4-45.9h15.6l4.4,45.9h-8.7l-.7-7.4h-5.5l-.6,7.4h-8.9ZM189.6,140h4.2l-2-23.3h-.4l-1.7,23.3Z"/>
      <path class="cls-4" d="M206.3,154.7v-45.9h8.9v45.9h-8.9Z"/>
      <path class="cls-4" d="M218.8,154.7v-45.9h9.2v38.1h9.4v7.8h-18.6Z"/>
      <path class="cls-4" d="M263.2,155.1c-3.3,0-6-1-8-3.1-2-2.1-3-5-3-8.7v-21.2c0-4.4.9-7.9,2.6-10.2,1.8-2.4,4.6-3.5,8.6-3.5s4.1.4,5.8,1.2,3,2,4,3.6c1,1.6,1.5,3.6,1.5,6v7.9h-9.1v-6.8c0-1.4-.2-2.3-.5-2.8s-.9-.7-1.6-.7-1.4.3-1.7.9c-.3.6-.4,1.4-.4,2.5v23c0,1.3.2,2.2.6,2.7.4.5.9.8,1.6.8s1.3-.3,1.7-1c.3-.6.5-1.5.5-2.5v-8.3h9.2v8.7c0,4-1,7-3.1,8.8s-4.9,2.7-8.5,2.7Z"/>
      <path class="cls-4" d="M288.8,155.1c-3.7,0-6.5-1.1-8.4-3.3-1.9-2.2-2.9-5.4-2.9-9.6v-21.8c0-3.9,1-6.9,2.9-8.9,1.9-2,4.7-3.1,8.4-3.1s6.5,1,8.4,3.1c1.9,2,2.9,5,2.9,8.9v21.8c0,4.2-1,7.4-2.9,9.6-1.9,2.2-4.7,3.3-8.4,3.3ZM288.9,146.7c1.4,0,2.1-1.3,2.1-4v-22.4c0-2.3-.7-3.4-2-3.4s-2.3,1.2-2.3,3.5v22.4c0,1.4.2,2.4.5,3.1.3.6.9.9,1.7.9Z"/>
      <path class="cls-4" d="M303.8,154.7v-45.9h9.4l4.2,22v-22h8.9v45.9h-9l-4.6-22.9v22.9h-9Z"/>
      <path class="cls-4" d="M330.4,154.7v-45.9h18.4v8.9h-9.1v7.3h8.7v8.8h-8.7v20.8h-9.2Z"/>
      <path class="cls-4" d="M351.3,154.7v-45.9h8.9v45.9h-8.9Z"/>
      <path class="cls-4" d="M363.8,154.7v-45.9h14.1c2.3,0,4.1.5,5.3,1.6,1.2,1.1,2,2.6,2.4,4.5.4,1.9.6,4.2.6,6.8s-.3,4.5-1,6-1.8,2.5-3.6,3.1c1.4.3,2.5,1,3,2.2.6,1.1.9,2.6.9,4.4v17.4h-9v-18c0-1.3-.3-2.2-.8-2.5s-1.4-.5-2.6-.5v20.9h-9.3ZM373.1,125.8h2.2c1.3,0,1.9-1.4,1.9-4.1s-.1-3-.4-3.5c-.3-.6-.8-.8-1.6-.8h-2.1v8.5Z"/>
      <path class="cls-4" d="M389.2,154.7v-45.9h14l3.9,28,3.8-28h14.1v45.9h-8.4v-33.1l-5.3,33.1h-8.2l-5.6-33.1v33.1h-8.3Z"/>
      <path class="cls-4" d="M427.8,154.7l4.4-45.9h15.6l4.4,45.9h-8.7l-.7-7.4h-5.5l-.6,7.4h-8.9ZM438,140h4.2l-2-23.3h-.4l-1.7,23.3Z"/>
      <path class="cls-4" d="M458.3,154.7v-37.1h-5.4v-8.8h20.1v8.8h-5.5v37.1h-9.2Z"/>
      <path class="cls-4" d="M475,154.7v-45.9h8.9v45.9h-8.9Z"/>
      <path class="cls-4" d="M498.5,155.1c-3.7,0-6.5-1.1-8.4-3.3-1.9-2.2-2.9-5.4-2.9-9.6v-21.8c0-3.9,1-6.9,2.9-8.9,1.9-2,4.7-3.1,8.4-3.1s6.5,1,8.4,3.1c1.9,2,2.9,5,2.9,8.9v21.8c0,4.2-1,7.4-2.9,9.6-1.9,2.2-4.7,3.3-8.4,3.3ZM498.6,146.7c1.4,0,2.1-1.3,2.1-4v-22.4c0-2.3-.7-3.4-2-3.4s-2.3,1.2-2.3,3.5v22.4c0,1.4.2,2.4.5,3.1s.9.9,1.7.9Z"/>
      <path class="cls-4" d="M513.5,154.7v-45.9h9.4l4.2,22v-22h8.9v45.9h-9l-4.6-22.9v22.9h-9Z"/>
      <path class="cls-4" d="M563.5,155.1c-4.2,0-7.2-1-9.1-3.1s-2.8-5.4-2.8-10v-4.5h9.1v5.7c0,1.1.2,1.9.5,2.5.3.6.9.9,1.7.9s1.4-.2,1.7-.7c.3-.5.5-1.3.5-2.4s-.1-2.6-.4-3.5-.8-1.9-1.4-2.7c-.7-.9-1.6-1.9-2.9-3l-4.1-3.9c-3.1-2.9-4.6-6.2-4.6-10s.9-6.9,2.7-8.9c1.8-2.1,4.4-3.1,7.9-3.1s7.2,1.1,9,3.4c1.8,2.2,2.6,5.6,2.6,10.2h-9.3v-3.2c0-.6-.2-1.1-.5-1.5-.4-.3-.8-.5-1.4-.5s-1.3.2-1.6.6-.5.9-.5,1.6.2,1.3.5,2.1c.3.7,1,1.6,2.1,2.6l5.3,5.1c1.1,1,2,2.1,2.9,3.2s1.6,2.4,2.1,3.9c.5,1.5.8,3.3.8,5.4,0,4.3-.8,7.7-2.4,10.1s-4.4,3.7-8.3,3.7Z"/>
      <path class="cls-4" d="M577.3,154.7v-45.9h18.4v8.9h-9v8.9h8.7v8.6h-8.7v10.5h9.6v8.9h-19Z"/>
      <path class="cls-4" d="M599.2,154.7v-45.9h9.4l4.2,22v-22h8.9v45.9h-9l-4.6-22.9v22.9h-9Z"/>
      <path class="cls-4" d="M629.8,154.7v-37.1h-5.4v-8.8h20.1v8.8h-5.4v37.1h-9.2Z"/>
    </g>
  </g>
</svg>