<?xml version="1.0" encoding="UTF-8"?>
<svg id="Layer_1" data-name="Layer 1" xmlns="http://www.w3.org/2000/svg" version="1.1" viewBox="0 0 679.1 199.1">
  <defs>
    <style>
      .cls-1 {
        fill: #ecd5b0;
      }

      .cls-1, .cls-2, .cls-3, .cls-4, .cls-5, .cls-6, .cls-7 {
        stroke-width: 0px;
      }

      .cls-8, .cls-5 {
        isolation: isolate;
      }

      .cls-2 {
        fill: #b4e0dc;
      }

      .cls-3 {
        fill: #fdf5ba;
      }

      .cls-4 {
        fill: #fff;
      }

      .cls-5 {
        fill: #000;
        opacity: .5;
      }

      .cls-6 {
        fill: #a5c8ea;
      }

      .cls-7 {
        fill: #b3d8b3;
      }
    </style>
  </defs>
  <polygon class="cls-5" points="679.1 31.3 665.7 20.1 679.1 8.8 679.1 0 0 0 0 199.1 679.1 199.1 679.1 76.4 665.7 65.2 679.1 53.9 665.7 42.6 679.1 31.3"/>
  <rect class="cls-6" y="0" width="97.3" height="35.8"/>
  <rect class="cls-3" y="40.8" width="97.3" height="35.8"/>
  <rect class="cls-7" y="81.7" width="97.3" height="35.8"/>
  <rect class="cls-1" y="122.5" width="97.3" height="35.8"/>
  <rect class="cls-2" y="163.3" width="97.3" height="35.8"/>
  <g class="cls-8">
    <g class="cls-8">
      <g class="cls-8">
        <path class="cls-4" d="M134.6,126.1c-5.7,0-9.9-1.4-12.4-4.3s-3.8-7.4-3.8-13.7v-6.1h12.4v7.9c0,1.5.2,2.6.7,3.4.4.8,1.2,1.2,2.3,1.2s1.9-.3,2.4-1c.4-.7.7-1.8.7-3.3s-.2-3.5-.6-4.8c-.4-1.3-1-2.5-2-3.7-.9-1.2-2.2-2.6-3.9-4.1l-5.6-5.4c-4.2-4-6.3-8.5-6.3-13.7s1.2-9.4,3.7-12.3c2.5-2.8,6.1-4.2,10.8-4.2s9.9,1.5,12.3,4.6c2.4,3.1,3.6,7.7,3.6,14h-12.8v-4.3c0-.9-.2-1.5-.7-2-.5-.5-1.1-.7-2-.7s-1.7.3-2.2.8c-.5.6-.7,1.3-.7,2.2s.2,1.8.7,2.9c.5,1,1.4,2.2,2.8,3.5l7.3,7c1.5,1.4,2.8,2.8,4,4.4,1.2,1.5,2.2,3.3,2.9,5.4.7,2,1.1,4.5,1.1,7.5,0,5.9-1.1,10.5-3.3,13.9-2.2,3.3-6,5-11.4,5Z"/>
        <path class="cls-4" d="M153.5,125.5v-62.9h25.2v12.2h-12.4v12.3h11.9v11.8h-11.9v14.4h13.2v12.3h-26Z"/>
        <path class="cls-4" d="M181.9,125.5l6.1-62.9h21.3l6,62.9h-11.9l-.9-10.2h-7.6l-.8,10.2h-12.2ZM195.8,105.3h5.7l-2.8-32h-.6l-2.4,32Z"/>
        <path class="cls-4" d="M219.1,125.5v-62.9h19.3c3.2,0,5.6.7,7.3,2.2,1.6,1.5,2.7,3.5,3.3,6.1.6,2.6.8,5.7.8,9.3s-.4,6.2-1.3,8.2c-.9,2-2.5,3.5-4.9,4.3,2,.4,3.4,1.4,4.2,2.9.8,1.6,1.2,3.6,1.2,6.1v23.8h-12.4v-24.6c0-1.8-.4-3-1.1-3.4-.8-.4-2-.7-3.6-.7v28.7h-12.7ZM231.9,85.9h3c1.7,0,2.6-1.9,2.6-5.7s-.2-4.1-.6-4.8c-.4-.8-1.1-1.1-2.1-1.1h-2.9v11.7Z"/>
        <path class="cls-4" d="M268.7,126.1c-4.6,0-8.2-1.4-11-4.3-2.8-2.8-4.2-6.8-4.2-11.9v-29c0-6.1,1.2-10.8,3.6-14,2.4-3.2,6.4-4.9,11.8-4.9s5.6.5,8,1.6c2.3,1.1,4.2,2.7,5.5,4.9,1.3,2.2,2,4.9,2,8.2v10.9h-12.5v-9.3c0-1.9-.2-3.2-.7-3.8-.5-.7-1.2-1-2.2-1s-2,.4-2.4,1.3c-.4.8-.6,2-.6,3.4v31.5c0,1.7.3,3,.8,3.7.5.7,1.2,1.1,2.2,1.1s1.8-.4,2.3-1.3c.4-.9.7-2,.7-3.4v-11.3h12.7v11.9c0,5.5-1.4,9.5-4.2,12s-6.7,3.7-11.7,3.7Z"/>
        <path class="cls-4" d="M288.7,125.5v-62.9h12.5v22.5h5.9v-22.5h12.5v62.9h-12.5v-28.5h-5.9v28.5h-12.5Z"/>
        <path class="cls-4" d="M342.4,125.5v-62.9h17c4.6,0,7.9,1.1,10,3.3,2.1,2.2,3.1,5.9,3.1,11v2.8c0,3-.5,5.3-1.6,7.2-1.1,1.8-2.7,3-4.8,3.6,2.8.7,4.7,2.4,5.7,5s1.4,5.8,1.4,9.6-.4,7.6-1.1,10.7c-.8,3.1-2.1,5.4-4.1,7.1-2,1.7-4.8,2.5-8.5,2.5h-17ZM354.7,86.3h2.6c1.2,0,1.9-.5,2.3-1.4.3-.9.5-2,.5-3.3v-6.3c0-2-.9-3-2.7-3h-2.6v14ZM355.9,114.4c3.3,0,4.9-1.5,4.9-4.6v-7.9c0-1.8-.3-3.2-.8-4.2s-1.5-1.6-3-1.6h-2.3v18.2c.5,0,.9,0,1.3,0Z"/>
        <path class="cls-4" d="M392.4,126.1c-5,0-8.9-1.5-11.5-4.6-2.7-3-4-7.4-4-13.2v-29.9c0-5.4,1.3-9.5,3.9-12.3,2.6-2.8,6.5-4.2,11.6-4.2s8.9,1.4,11.6,4.2c2.6,2.8,3.9,6.9,3.9,12.3v29.9c0,5.7-1.3,10.1-4,13.2-2.7,3-6.5,4.6-11.5,4.6ZM392.5,114.5c1.9,0,2.9-1.8,2.9-5.5v-30.7c0-3.1-.9-4.6-2.8-4.6s-3.1,1.6-3.1,4.8v30.7c0,2,.2,3.4.7,4.2s1.3,1.3,2.4,1.3Z"/>
        <path class="cls-4" d="M428,126.1c-5,0-8.9-1.5-11.5-4.6-2.7-3-4-7.4-4-13.2v-29.9c0-5.4,1.3-9.5,3.9-12.3,2.6-2.8,6.5-4.2,11.6-4.2s8.9,1.4,11.6,4.2c2.6,2.8,3.9,6.9,3.9,12.3v29.9c0,5.7-1.3,10.1-4,13.2-2.7,3-6.5,4.6-11.5,4.6ZM428.1,114.5c1.9,0,2.9-1.8,2.9-5.5v-30.7c0-3.1-.9-4.6-2.8-4.6s-3.1,1.6-3.1,4.8v30.7c0,2,.2,3.4.7,4.2.5.8,1.3,1.3,2.4,1.3Z"/>
        <path class="cls-4" d="M448.6,125.5v-62.9h12.4v25.2l5.9-25.2h12.7l-7,28.8,8.5,34.1h-13l-6.9-30.5v30.5h-12.5Z"/>
        <path class="cls-4" d="M482.6,125.5v-62.9h12.2v62.9h-12.2Z"/>
        <path class="cls-4" d="M499.8,125.5v-62.9h12.9l5.8,30.1v-30.1h12.2v62.9h-12.3l-6.3-31.5v31.5h-12.3Z"/>
        <path class="cls-4" d="M549.2,126.1c-9,0-13.5-6.4-13.5-19.3v-27.1c0-11.7,5.1-17.6,15.4-17.6s7.5.9,9.8,2.6c2.3,1.7,3.8,4.2,4.7,7.5.9,3.3,1.3,7.2,1.3,11.9h-12.3v-5.6c0-1.4-.2-2.5-.6-3.4s-1.1-1.4-2.3-1.4-2.4.5-2.9,1.5c-.5,1-.7,2-.7,3.2v30.5c0,1.7.2,3.1.7,4.1.4,1.1,1.3,1.6,2.6,1.6s2.2-.5,2.7-1.6c.4-1.1.7-2.5.7-4.2v-9h-3.4v-10.9h15.4v36.6h-5l-2.1-5.3c-2.2,3.9-5.6,5.9-10.4,5.9Z"/>
        <path class="cls-4" d="M586.7,126.1c-5.7,0-9.9-1.4-12.4-4.3s-3.8-7.4-3.8-13.7v-6.1h12.4v7.9c0,1.5.2,2.6.7,3.4.4.8,1.2,1.2,2.3,1.2s1.9-.3,2.4-1c.4-.7.7-1.8.7-3.3s-.2-3.5-.6-4.8-1-2.5-2-3.7c-.9-1.2-2.2-2.6-3.9-4.1l-5.6-5.4c-4.2-4-6.3-8.5-6.3-13.7s1.2-9.4,3.7-12.3c2.5-2.8,6.1-4.2,10.8-4.2s9.9,1.5,12.3,4.6c2.4,3.1,3.6,7.7,3.6,14h-12.8v-4.3c0-.9-.2-1.5-.7-2s-1.1-.7-2-.7-1.7.3-2.2.8-.7,1.3-.7,2.2.2,1.8.7,2.9c.5,1,1.4,2.2,2.8,3.5l7.3,7c1.5,1.4,2.8,2.8,4,4.4,1.2,1.5,2.2,3.3,2.9,5.4.7,2,1.1,4.5,1.1,7.5,0,5.9-1.1,10.5-3.3,13.9-2.2,3.3-6,5-11.4,5Z"/>
      </g>
    </g>
  </g>
</svg>