<?xml version="1.0" encoding="UTF-8"?>
<svg id="Layer_1" data-name="Layer 1" xmlns="http://www.w3.org/2000/svg" version="1.1" viewBox="0 0 679.1 199.1">
  <defs>
    <style>
      .cls-1 {
        fill: #ecd5b0;
      }

      .cls-1, .cls-2, .cls-3, .cls-4, .cls-5, .cls-6, .cls-7 {
        stroke-width: 0px;
      }

      .cls-8, .cls-5 {
        isolation: isolate;
      }

      .cls-2 {
        fill: #b4e0dc;
      }

      .cls-3 {
        fill: #fdf5ba;
      }

      .cls-4 {
        fill: #fff;
      }

      .cls-5 {
        fill: #000;
        opacity: .5;
      }

      .cls-6 {
        fill: #a5c8ea;
      }

      .cls-7 {
        fill: #b3d8b3;
      }
    </style>
  </defs>
  <polygon class="cls-5" points="679.1 31.3 665.7 20.1 679.1 8.8 679.1 0 0 0 0 199.1 679.1 199.1 679.1 76.4 665.7 65.2 679.1 53.9 665.7 42.6 679.1 31.3"/>
  <rect class="cls-6" y="0" width="97.3" height="35.8"/>
  <rect class="cls-3" y="40.8" width="97.3" height="35.8"/>
  <rect class="cls-7" y="81.7" width="97.3" height="35.8"/>
  <rect class="cls-1" y="122.5" width="97.3" height="35.8"/>
  <rect class="cls-2" y="163.3" width="97.3" height="35.8"/>
  <g class="cls-8">
    <g class="cls-8">
      <path class="cls-4" d="M124,90.7l-6.2-58.1h11.4l3.2,36.7,3.3-36.7h10.8l3.1,36.7,3.1-36.7h11.5l-6.3,58.1h-13.9l-2.9-28-2.8,28h-14.2Z"/>
      <path class="cls-4" d="M167.6,90.7v-58.1h23.2v11.2h-11.4v11.3h11v10.9h-11v13.3h12.2v11.3h-24Z"/>
      <path class="cls-4" d="M195.4,90.7v-58.1h11.6v48.2h11.9v9.9h-23.6Z"/>
      <path class="cls-4" d="M235.8,91.2c-4.2,0-7.6-1.3-10.1-3.9-2.6-2.6-3.8-6.3-3.8-11v-26.8c0-5.6,1.1-9.9,3.4-12.9,2.2-3,5.9-4.5,10.9-4.5s5.2.5,7.3,1.5c2.1,1,3.8,2.5,5.1,4.5,1.2,2,1.8,4.5,1.8,7.6v10h-11.6v-8.6c0-1.7-.2-2.9-.7-3.5-.4-.6-1.1-.9-2-.9s-1.8.4-2.2,1.2c-.4.8-.6,1.8-.6,3.1v29.1c0,1.6.2,2.7.7,3.4s1.1,1,2,1,1.7-.4,2.1-1.2c.4-.8.6-1.9.6-3.2v-10.5h11.7v11c0,5.1-1.3,8.8-3.9,11.1s-6.2,3.4-10.8,3.4Z"/>
      <path class="cls-4" d="M268.2,91.2c-4.6,0-8.2-1.4-10.6-4.2-2.5-2.8-3.7-6.9-3.7-12.2v-27.6c0-5,1.2-8.7,3.6-11.3,2.4-2.6,6-3.9,10.7-3.9s8.2,1.3,10.7,3.9c2.4,2.6,3.6,6.3,3.6,11.3v27.6c0,5.3-1.2,9.4-3.7,12.2-2.5,2.8-6,4.2-10.6,4.2ZM268.3,80.5c1.8,0,2.6-1.7,2.6-5.1v-28.4c0-2.9-.9-4.3-2.6-4.3s-2.9,1.5-2.9,4.4v28.3c0,1.8.2,3.1.7,3.9.4.8,1.2,1.2,2.2,1.2Z"/>
      <path class="cls-4" d="M287.2,90.7v-58.1h17.7l4.9,35.4,4.9-35.4h17.9v58.1h-10.6v-41.9l-6.7,41.9h-10.4l-7.1-41.9v41.9h-10.5Z"/>
      <path class="cls-4" d="M337.7,90.7v-58.1h23.2v11.2h-11.4v11.3h11v10.9h-11v13.3h12.2v11.3h-24Z"/>
      <path class="cls-4" d="M386.3,90.7v-46.9h-6.9v-11.2h25.4v11.2h-6.9v46.9h-11.6Z"/>
      <path class="cls-4" d="M421.9,91.2c-4.6,0-8.2-1.4-10.6-4.2-2.5-2.8-3.7-6.9-3.7-12.2v-27.6c0-5,1.2-8.7,3.6-11.3,2.4-2.6,6-3.9,10.7-3.9s8.2,1.3,10.7,3.9c2.4,2.6,3.6,6.3,3.6,11.3v27.6c0,5.3-1.2,9.4-3.7,12.2-2.5,2.8-6,4.2-10.6,4.2ZM422,80.5c1.8,0,2.6-1.7,2.6-5.1v-28.4c0-2.9-.9-4.3-2.6-4.3s-2.9,1.5-2.9,4.4v28.3c0,1.8.2,3.1.7,3.9s1.2,1.2,2.2,1.2Z"/>
    </g>
    <g class="cls-8">
      <path class="cls-4" d="M119.5,152.5v-58.1h11.9l5.3,27.8v-27.8h11.2v58.1h-11.4l-5.8-29v29h-11.4Z"/>
      <path class="cls-4" d="M167,153c-4.6,0-8.2-1.4-10.6-4.2-2.5-2.8-3.7-6.9-3.7-12.2v-27.6c0-5,1.2-8.7,3.6-11.3,2.4-2.6,6-3.9,10.7-3.9s8.2,1.3,10.7,3.9c2.4,2.6,3.6,6.3,3.6,11.3v27.6c0,5.3-1.2,9.4-3.7,12.2-2.5,2.8-6,4.2-10.6,4.2ZM167.1,142.3c1.8,0,2.6-1.7,2.6-5.1v-28.4c0-2.9-.9-4.3-2.6-4.3s-2.9,1.5-2.9,4.4v28.3c0,1.8.2,3.1.7,3.9.4.8,1.2,1.2,2.2,1.2Z"/>
      <path class="cls-4" d="M186,152.5v-58.1h17.8c3,0,5.2.7,6.7,2,1.5,1.4,2.5,3.2,3.1,5.7.5,2.4.8,5.3.8,8.6s-.4,5.7-1.2,7.6c-.8,1.9-2.3,3.2-4.5,3.9,1.8.4,3.1,1.3,3.8,2.7.7,1.4,1.1,3.3,1.1,5.6v22h-11.5v-22.7c0-1.7-.3-2.7-1-3.2-.7-.4-1.8-.6-3.4-.6v26.5h-11.8ZM197.8,115.9h2.8c1.6,0,2.4-1.8,2.4-5.2s-.2-3.8-.5-4.5c-.4-.7-1-1.1-2-1.1h-2.7v10.8Z"/>
      <path class="cls-4" d="M223.2,152.5v-46.9h-6.9v-11.2h25.4v11.2h-6.9v46.9h-11.6Z"/>
      <path class="cls-4" d="M245,152.5v-58.1h11.6v20.8h5.5v-20.8h11.6v58.1h-11.6v-26.3h-5.5v26.3h-11.6Z"/>
      <path class="cls-4" d="M294,152.5v-58.1h11.2v58.1h-11.2Z"/>
      <path class="cls-4" d="M323.7,153c-5.3,0-9.1-1.3-11.5-4-2.3-2.6-3.5-6.8-3.5-12.6v-5.7h11.5v7.3c0,1.3.2,2.4.6,3.2.4.8,1.1,1.1,2.1,1.1s1.8-.3,2.2-.9c.4-.6.6-1.6.6-3s-.2-3.3-.5-4.5-1-2.3-1.8-3.4c-.9-1.1-2.1-2.4-3.6-3.8l-5.2-5c-3.9-3.7-5.8-7.9-5.8-12.6s1.1-8.7,3.4-11.3,5.6-3.9,10-3.9,9.1,1.4,11.3,4.3c2.2,2.8,3.4,7.2,3.4,12.9h-11.8v-4c0-.8-.2-1.4-.7-1.8-.5-.4-1.1-.7-1.8-.7s-1.6.3-2,.8c-.4.5-.6,1.2-.6,2s.2,1.7.7,2.6c.4.9,1.3,2,2.6,3.3l6.7,6.4c1.3,1.3,2.6,2.6,3.7,4,1.1,1.4,2,3.1,2.7,5,.7,1.9,1,4.2,1,6.9,0,5.5-1,9.7-3,12.8-2,3.1-5.5,4.6-10.5,4.6Z"/>
      <path class="cls-4" d="M341.1,152.5v-58.1h11.6v48.2h11.9v9.9h-23.6Z"/>
      <path class="cls-4" d="M366.3,152.5l5.6-58.1h19.7l5.5,58.1h-11l-.8-9.4h-7l-.7,9.4h-11.3ZM379.2,133.9h5.3l-2.5-29.5h-.5l-2.2,29.5Z"/>
      <path class="cls-4" d="M400.7,152.5v-58.1h11.9l5.3,27.8v-27.8h11.2v58.1h-11.4l-5.8-29v29h-11.4Z"/>
      <path class="cls-4" d="M434.4,152.5v-58.1h16c4.2,0,7.3,1.2,9.4,3.5,2.1,2.3,3.2,5.7,3.2,10.2v27.2c0,5.5-1,9.7-2.9,12.7-1.9,3-5.3,4.5-10.1,4.5h-15.6ZM446.1,142.2h2c2.1,0,3.2-1,3.2-3.1v-30c0-1.9-.3-3.2-.8-3.7-.5-.6-1.6-.8-3.2-.8h-1.3v37.7Z"/>
      <path class="cls-4" d="M497.4,153c-5.3,0-9.1-1.3-11.5-4s-3.5-6.8-3.5-12.6v-5.7h11.5v7.3c0,1.3.2,2.4.6,3.2.4.8,1.1,1.1,2.1,1.1s1.8-.3,2.2-.9c.4-.6.6-1.6.6-3s-.2-3.3-.5-4.5c-.4-1.2-1-2.3-1.8-3.4-.9-1.1-2.1-2.4-3.6-3.8l-5.2-5c-3.9-3.7-5.8-7.9-5.8-12.6s1.2-8.7,3.4-11.3c2.3-2.6,5.6-3.9,10-3.9s9.1,1.4,11.3,4.3c2.2,2.8,3.4,7.2,3.4,12.9h-11.8v-4c0-.8-.2-1.4-.7-1.8-.5-.4-1.1-.7-1.8-.7s-1.6.3-2,.8-.6,1.2-.6,2,.2,1.7.7,2.6c.4.9,1.3,2,2.6,3.3l6.7,6.4c1.3,1.3,2.6,2.6,3.7,4,1.1,1.4,2,3.1,2.7,5,.7,1.9,1,4.2,1,6.9,0,5.5-1,9.7-3,12.8s-5.5,4.6-10.5,4.6Z"/>
      <path class="cls-4" d="M519.8,152.5v-46.9h-6.9v-11.2h25.4v11.2h-6.9v46.9h-11.6Z"/>
      <path class="cls-4" d="M539.1,152.5l5.6-58.1h19.7l5.5,58.1h-11l-.8-9.4h-7l-.7,9.4h-11.3ZM551.9,133.9h5.3l-2.5-29.5h-.5l-2.2,29.5Z"/>
      <path class="cls-4" d="M578.9,152.5v-19.1l-9.3-39h11.5l3.2,19.7,3.2-19.7h11.5l-9.2,39v19.1h-11Z"/>
      <path class="cls-4" d="M615.8,153c-5.3,0-9.1-1.3-11.5-4-2.3-2.6-3.5-6.8-3.5-12.6v-5.7h11.5v7.3c0,1.3.2,2.4.6,3.2.4.8,1.1,1.1,2.1,1.1s1.8-.3,2.2-.9c.4-.6.6-1.6.6-3s-.2-3.3-.5-4.5c-.4-1.2-1-2.3-1.8-3.4-.9-1.1-2.1-2.4-3.6-3.8l-5.2-5c-3.9-3.7-5.8-7.9-5.8-12.6s1.1-8.7,3.4-11.3c2.3-2.6,5.6-3.9,10-3.9s9.1,1.4,11.3,4.3c2.2,2.8,3.4,7.2,3.4,12.9h-11.8v-4c0-.8-.2-1.4-.7-1.8-.5-.4-1.1-.7-1.8-.7s-1.6.3-2,.8c-.4.5-.6,1.2-.6,2s.2,1.7.7,2.6,1.3,2,2.6,3.3l6.7,6.4c1.3,1.3,2.6,2.6,3.7,4,1.1,1.4,2,3.1,2.7,5,.7,1.9,1,4.2,1,6.9,0,5.5-1,9.7-3,12.8s-5.5,4.6-10.5,4.6Z"/>
    </g>
  </g>
</svg>