<?xml version="1.0" encoding="UTF-8"?>
<svg id="Layer_1" data-name="Layer 1" xmlns="http://www.w3.org/2000/svg" version="1.1" viewBox="0 0 679.1 199.1">
  <defs>
    <style>
      .cls-1 {
        fill: #ecd5b0;
      }

      .cls-1, .cls-2, .cls-3, .cls-4, .cls-5, .cls-6, .cls-7 {
        stroke-width: 0px;
      }

      .cls-8, .cls-5 {
        isolation: isolate;
      }

      .cls-2 {
        fill: #b4e0dc;
      }

      .cls-3 {
        fill: #fdf5ba;
      }

      .cls-4 {
        fill: #fff;
      }

      .cls-5 {
        fill: #000;
        opacity: .5;
      }

      .cls-6 {
        fill: #a5c8ea;
      }

      .cls-7 {
        fill: #b3d8b3;
      }
    </style>
  </defs>
  <polygon class="cls-5" points="679.1 31.3 665.7 20.1 679.1 8.8 679.1 0 0 0 0 199.1 679.1 199.1 679.1 76.4 665.7 65.2 679.1 53.9 665.7 42.6 679.1 31.3"/>
  <rect class="cls-6" y="0" width="97.3" height="35.8"/>
  <rect class="cls-3" y="40.8" width="97.3" height="35.8"/>
  <rect class="cls-7" y="81.7" width="97.3" height="35.8"/>
  <rect class="cls-1" y="122.5" width="97.3" height="35.8"/>
  <rect class="cls-2" y="163.3" width="97.3" height="35.8"/>
  <g class="cls-8">
    <g class="cls-8">
      <path class="cls-4" d="M119.3,95.2v-54.9h14.5c3,0,5.4.7,7.2,2,1.8,1.4,3.1,3.3,3.8,5.8s1.2,5.5,1.2,8.9-.3,6.2-1,8.7c-.6,2.5-1.8,4.4-3.4,5.7-1.7,1.4-4,2-7,2h-4.5v21.7h-10.8ZM130.1,63.6h.6c2,0,3.3-.6,3.7-1.7.5-1.1.7-2.8.7-5.1s-.2-3.7-.7-4.8c-.4-1.1-1.5-1.7-3.2-1.7h-1.2v13.3Z"/>
      <path class="cls-4" d="M149.5,95.2v-54.9h11v45.6h11.3v9.4h-22.3Z"/>
      <path class="cls-4" d="M174.9,95.2v-54.9h22v10.6h-10.8v10.7h10.4v10.3h-10.4v12.6h11.5v10.7h-22.7Z"/>
      <path class="cls-4" d="M199.7,95.2l5.3-54.9h18.6l5.2,54.9h-10.4l-.8-8.9h-6.6l-.7,8.9h-10.7ZM211.8,77.6h5l-2.4-27.9h-.5l-2.1,27.9Z"/>
      <path class="cls-4" d="M245.3,95.7c-5,0-8.6-1.2-10.8-3.7s-3.3-6.5-3.3-11.9v-5.4h10.9v6.9c0,1.3.2,2.3.6,3,.4.7,1.1,1.1,2,1.1s1.7-.3,2.1-.9c.4-.6.6-1.5.6-2.9s-.2-3.1-.5-4.2c-.3-1.1-.9-2.2-1.7-3.2-.8-1-2-2.2-3.4-3.6l-4.9-4.7c-3.7-3.5-5.5-7.4-5.5-11.9s1.1-8.2,3.3-10.7c2.2-2.5,5.3-3.7,9.4-3.7s8.6,1.3,10.7,4c2.1,2.7,3.2,6.8,3.2,12.2h-11.2v-3.8c0-.7-.2-1.3-.6-1.7s-1-.6-1.7-.6-1.5.2-1.9.7c-.4.5-.6,1.1-.6,1.9s.2,1.6.6,2.5c.4.9,1.2,1.9,2.5,3.1l6.3,6.1c1.3,1.2,2.4,2.5,3.5,3.8,1.1,1.3,1.9,2.9,2.6,4.7s1,3.9,1,6.5c0,5.2-1,9.2-2.9,12.1-1.9,2.9-5.2,4.4-9.9,4.4Z"/>
      <path class="cls-4" d="M261.7,95.2v-54.9h22v10.6h-10.8v10.7h10.4v10.3h-10.4v12.6h11.5v10.7h-22.7Z"/>
      <path class="cls-4" d="M303,95.2v-54.9h22v10.6h-10.8v10.7h10.4v10.3h-10.4v12.6h11.5v10.7h-22.7Z"/>
      <path class="cls-4" d="M329.3,95.2v-54.9h11.3l5.1,26.3v-26.3h10.6v54.9h-10.7l-5.5-27.5v27.5h-10.7Z"/>
      <path class="cls-4" d="M365.8,95.2v-44.4h-6.5v-10.5h24v10.5h-6.5v44.4h-11Z"/>
      <path class="cls-4" d="M386.4,95.2v-54.9h22v10.6h-10.8v10.7h10.4v10.3h-10.4v12.6h11.5v10.7h-22.7Z"/>
      <path class="cls-4" d="M412.7,95.2v-54.9h16.8c2.8,0,4.9.6,6.4,1.9,1.4,1.3,2.4,3.1,2.9,5.4.5,2.3.7,5,.7,8.1s-.4,5.4-1.1,7.2c-.8,1.8-2.2,3-4.3,3.7,1.7.4,2.9,1.2,3.6,2.6.7,1.4,1,3.1,1,5.3v20.8h-10.8v-21.5c0-1.6-.3-2.6-1-3-.7-.4-1.7-.6-3.2-.6v25.1h-11.1ZM423.9,60.6h2.7c1.5,0,2.3-1.7,2.3-5s-.2-3.5-.5-4.2c-.3-.7-1-1-1.9-1h-2.6v10.2Z"/>
      <path class="cls-4" d="M458.1,95.2v-54.9h15.1c4,0,6.9,1.1,8.9,3.3,2,2.2,3,5.4,3,9.6v25.7c0,5.2-.9,9.2-2.7,12s-5,4.2-9.6,4.2h-14.7ZM469.2,85.5h1.9c2,0,3-1,3-2.9v-28.3c0-1.8-.2-3-.7-3.5-.5-.5-1.5-.8-3-.8h-1.2v35.6Z"/>
      <path class="cls-4" d="M489.6,95.2v-54.9h22v10.6h-10.8v10.7h10.4v10.3h-10.4v12.6h11.5v10.7h-22.7Z"/>
      <path class="cls-4" d="M520.6,95.2v-44.4h-6.5v-10.5h24v10.5h-6.5v44.4h-11Z"/>
      <path class="cls-4" d="M538.9,95.2l5.3-54.9h18.6l5.2,54.9h-10.4l-.8-8.9h-6.6l-.7,8.9h-10.7ZM551,77.6h5l-2.4-27.9h-.5l-2.1,27.9Z"/>
      <path class="cls-4" d="M570.9,95.2v-54.9h10.6v54.9h-10.6Z"/>
      <path class="cls-4" d="M585.9,95.2v-54.9h11v45.6h11.3v9.4h-22.3Z"/>
      <path class="cls-4" d="M624.3,95.7c-5,0-8.6-1.2-10.8-3.7-2.2-2.5-3.3-6.5-3.3-11.9v-5.4h10.9v6.9c0,1.3.2,2.3.6,3,.4.7,1.1,1.1,2,1.1s1.7-.3,2.1-.9.6-1.5.6-2.9-.2-3.1-.5-4.2c-.3-1.1-.9-2.2-1.7-3.2-.8-1-2-2.2-3.4-3.6l-4.9-4.7c-3.7-3.5-5.5-7.4-5.5-11.9s1.1-8.2,3.3-10.7c2.2-2.5,5.3-3.7,9.4-3.7s8.6,1.3,10.7,4c2.1,2.7,3.2,6.8,3.2,12.2h-11.2v-3.8c0-.7-.2-1.3-.6-1.7s-1-.6-1.7-.6-1.5.2-1.9.7c-.4.5-.6,1.1-.6,1.9s.2,1.6.6,2.5c.4.9,1.2,1.9,2.5,3.1l6.3,6.1c1.3,1.2,2.4,2.5,3.5,3.8,1.1,1.3,1.9,2.9,2.6,4.7s1,3.9,1,6.5c0,5.2-1,9.2-2.9,12.1-1.9,2.9-5.2,4.4-9.9,4.4Z"/>
    </g>
  </g>
  <g class="cls-8">
    <g class="cls-8">
      <path class="cls-4" d="M119.3,158.3v-54.9h22v10.7h-10.9v8.7h10.4v10.6h-10.4v24.9h-11Z"/>
      <path class="cls-4" d="M157.9,158.8c-4.4,0-7.7-1.3-10.1-4-2.3-2.7-3.5-6.5-3.5-11.5v-26.1c0-4.7,1.1-8.3,3.4-10.7,2.3-2.4,5.7-3.7,10.1-3.7s7.8,1.2,10.1,3.7c2.3,2.4,3.4,6,3.4,10.7v26.1c0,5-1.2,8.8-3.5,11.5-2.3,2.7-5.7,4-10.1,4ZM158,148.7c1.7,0,2.5-1.6,2.5-4.8v-26.8c0-2.7-.8-4.1-2.4-4.1s-2.7,1.4-2.7,4.1v26.8c0,1.7.2,2.9.6,3.7s1.1,1.1,2.1,1.1Z"/>
      <path class="cls-4" d="M175.9,158.3v-54.9h16.8c2.8,0,4.9.6,6.4,1.9,1.4,1.3,2.4,3.1,2.9,5.4.5,2.3.7,5,.7,8.1s-.4,5.4-1.1,7.2c-.8,1.8-2.2,3-4.3,3.7,1.7.4,2.9,1.2,3.6,2.6.7,1.4,1,3.1,1,5.3v20.8h-10.8v-21.5c0-1.6-.3-2.6-1-3-.7-.4-1.7-.6-3.2-.6v25.1h-11.1ZM187.1,123.7h2.7c1.5,0,2.3-1.7,2.3-5s-.2-3.5-.5-4.2c-.3-.7-1-1-1.9-1h-2.6v10.2Z"/>
      <path class="cls-4" d="M234.1,158.8c-4,0-7.2-1.2-9.6-3.7-2.4-2.5-3.6-5.9-3.6-10.4v-25.3c0-5.3,1.1-9.4,3.2-12.2,2.1-2.8,5.5-4.2,10.3-4.2s4.9.5,6.9,1.4c2,1,3.6,2.4,4.8,4.3,1.2,1.9,1.7,4.3,1.7,7.2v9.5h-10.9v-8.1c0-1.6-.2-2.8-.6-3.3-.4-.6-1.1-.9-1.9-.9s-1.7.4-2.1,1.1c-.4.7-.5,1.7-.5,2.9v27.5c0,1.5.2,2.6.7,3.2.4.6,1.1.9,1.9.9s1.6-.4,2-1.2.6-1.8.6-3v-9.9h11v10.4c0,4.8-1.2,8.3-3.7,10.5-2.4,2.2-5.8,3.3-10.2,3.3Z"/>
      <path class="cls-4" d="M264.7,158.8c-4.4,0-7.7-1.3-10.1-4-2.3-2.7-3.5-6.5-3.5-11.5v-26.1c0-4.7,1.1-8.3,3.4-10.7,2.3-2.4,5.7-3.7,10.1-3.7s7.8,1.2,10.1,3.7c2.3,2.4,3.4,6,3.4,10.7v26.1c0,5-1.2,8.8-3.5,11.5-2.3,2.7-5.7,4-10.1,4ZM264.8,148.7c1.7,0,2.5-1.6,2.5-4.8v-26.8c0-2.7-.8-4.1-2.4-4.1s-2.7,1.4-2.7,4.1v26.8c0,1.7.2,2.9.6,3.7s1.1,1.1,2.1,1.1Z"/>
      <path class="cls-4" d="M282.7,158.3v-54.9h11.3l5.1,26.3v-26.3h10.6v54.9h-10.7l-5.5-27.5v27.5h-10.7Z"/>
      <path class="cls-4" d="M314.5,158.3v-54.9h22v10.7h-10.9v8.7h10.4v10.6h-10.4v24.9h-11Z"/>
      <path class="cls-4" d="M339.5,158.3v-54.9h10.6v54.9h-10.6Z"/>
      <path class="cls-4" d="M354.5,158.3v-54.9h16.8c2.8,0,4.9.6,6.4,1.9,1.4,1.3,2.4,3.1,2.9,5.4.5,2.3.7,5,.7,8.1s-.4,5.4-1.1,7.2c-.8,1.8-2.2,3-4.3,3.7,1.7.4,2.9,1.2,3.6,2.6.7,1.4,1,3.1,1,5.3v20.8h-10.8v-21.5c0-1.6-.3-2.6-1-3-.7-.4-1.7-.6-3.2-.6v25.1h-11.1ZM365.7,123.7h2.7c1.5,0,2.3-1.7,2.3-5s-.2-3.5-.5-4.2c-.3-.7-1-1-1.9-1h-2.6v10.2Z"/>
      <path class="cls-4" d="M384.9,158.3v-54.9h16.7l4.6,33.5,4.6-33.5h16.9v54.9h-10v-39.6l-6.3,39.6h-9.9l-6.7-39.6v39.6h-9.9Z"/>
      <path class="cls-4" d="M431.1,158.3l5.3-54.9h18.6l5.2,54.9h-10.4l-.8-8.9h-6.6l-.7,8.9h-10.7ZM443.3,140.7h5l-2.4-27.9h-.5l-2.1,27.9Z"/>
      <path class="cls-4" d="M467.5,158.3v-44.4h-6.5v-10.5h24v10.5h-6.5v44.4h-11Z"/>
      <path class="cls-4" d="M487.6,158.3v-54.9h10.6v54.9h-10.6Z"/>
      <path class="cls-4" d="M515.7,158.8c-4.4,0-7.7-1.3-10.1-4-2.3-2.7-3.5-6.5-3.5-11.5v-26.1c0-4.7,1.1-8.3,3.4-10.7,2.3-2.4,5.7-3.7,10.1-3.7s7.8,1.2,10.1,3.7c2.3,2.4,3.4,6,3.4,10.7v26.1c0,5-1.2,8.8-3.5,11.5-2.3,2.7-5.7,4-10.1,4ZM515.8,148.7c1.7,0,2.5-1.6,2.5-4.8v-26.8c0-2.7-.8-4.1-2.4-4.1s-2.7,1.4-2.7,4.1v26.8c0,1.7.2,2.9.6,3.7s1.1,1.1,2.1,1.1Z"/>
      <path class="cls-4" d="M533.7,158.3v-54.9h11.3l5.1,26.3v-26.3h10.6v54.9h-10.7l-5.5-27.5v27.5h-10.7Z"/>
    </g>
  </g>
</svg>