<?xml version="1.0" encoding="UTF-8"?>
<svg id="Layer_1" data-name="Layer 1" xmlns="http://www.w3.org/2000/svg" version="1.1" xmlns:xodm="http://www.corel.com/coreldraw/odm/2003" viewBox="0 0 293 344">
  <defs>
    <style>
      .cls-1 {
        fill: #fff;
        fill-opacity: .2;
        fill-rule: evenodd;
      }

      .cls-1, .cls-2 {
        stroke-width: 0px;
      }

      .cls-2 {
        fill: #fefefe;
      }
    </style>
  </defs>
  <path class="cls-2" d="M92.4,31.2l1.8,2.9c.1,0,.3.3.5.4.4.3.8.6.9,1,.2.5.2.8.2,1.1s0,.4.2.9c.3.5.5.9.7,1.2.5.8.8,1.3.8,2.8s0,1.6-.4,2c0,0-.2.2-.3.4-.2.3-.1.5,0,.7,0,.3.1.6.1,1l-.4.6c-.9.4-1.3.4-1.9.4h-.4c.2.9.7,1.3,1.1,1.8.4.4.7.7,1,1.2.2.4.4.8.5,1.1.2.4.3.6.3.7.3.2.5.3.6.3q.7.2,1,1.8c.2,1.2,1,2,1.9,2.8l.5.5c.4.4.6.8.8,1.2.1.2.2.5.4.7.2.3.3.4.5.5.2,0,.5,0,1.1,0l.7.9q-.2,1.1.3,1.8h.1c.3.5.5.9.7,1.2.2.3.4.6.6,1,.2.3.4.5.6.7.3.3.6.6.9,1.1,1,1.5,2,3,3.1,4.5l1.3,1.6.2.2h0c1.6,2.7,2.5,3.8,4,5.7l1.1,1.3c1.4,1.4,1.6,2,1.9,2.6.1.3.2.5.6,1l1,1.5h0c.1.3.2.5.2.6h0s0,.2.2.3h.1c.2.4.4.6.5.8.3.3.5.5,1,1.3.3.5.3.7.4,1v.4c.1.5.7,1.3,1.1,2,.1.2.2.4.3.5.3,0,.4.1.6.3.3.3.3.5.2.8h0s0-.1.4.2c1.6,1.4,1.5,1.8,1.5,2.4s0,.4.6,1.2h1c1.1,0,1.6,0,1.9-.5.1-.2,0-.5-.2-.9-.1-.3-.3-.6-.4-1,0-.2-.1-.4-.2-.5h0c0-.2-.1-.3-.2-.4-.7-1.5-1-1.8-1.4-2.1-.2-.1-.3-.2-.5-.4h0s-.1-.1-.2-.3-.3-.4-.5-.5l-2.2-1.9h0c-1.1-1.2-1.1-1.3-1.4-2,0-.2-.2-.4-.3-.6-.2-.5-.5-.9-.7-1.3-.6-.9-.9-1.5-.5-2.4l.8-.4c.9.3.9.4.9.9h0c0,.1,0,.3.1.3v.2c.1,0,.3.3.3.3,1,1.2,1.1,1.5,1.1,1.9s0,.4.7,1.3c.1.2.2.3.3.4.2,0,.5.2.9.5l3,1.9c.3.2.4.2.5.3l.3.2.6.3c.5.2.9.4,1.5.5v-.8c.1,0,.8-.6.8-.6.3,0,.6,0,.8.1.4.2.6.4.8.8.1.3.2.6.2.9,0,.8-.2,1.9-.4,2.4-.1.3-.3.6-.4.8-.3.7-.5,1.1-.4,2.6l.3.2c.3.2.5.3,1,.4h1.4c2,0,2.2,0,2.1,4.3h0v3c0,1.1-.4,1.5-1,1.6-.6,0-1.3-.5-1.8-.9-.1-.1-.3-.2-.3-.2-.3-.2-.8-.6-1.2-1-.5-.6-1-1.3-1.2-1.6-.1-.2-.2-.4-.2-.7-.1-.5-.3-1.2-.8-1.3h-.4c-.3.1-.3.9-.3,1.6h0c0,1.4.6,2.2,1.2,3.1.3.5.6.9.9,1.5v.2h.1l.4.3h0s.1.2.2.3.2.3.2.3c.2.4.4.7.5.9.2.1.4.3.7.5,1,.8,1,1.1,1,1.9v.8c0,.3.3.6.6.9.2.2.3.3.5.5.5.7.6,1.2.6,1.7s0,.5.2.8c.1.4.3.6.4.7h0c0,.1-1.2.1-1.2.1h-.4c0-.1-.1-.3-.2-.4-.2-.5-.2-.8-.2-1.1s0-.6-.4-1c0-.1-.2-.3-.4-.4-.4-.4-.8-.9-.9-1.6v-1c0-.4,0-.5-.5-.9l-.5-.4h0c-.2,0-.3,0-.4-.3,0-.1-.1-.2-.1-.3l-.4-.7-.2-.3-.4-.3-.2-.2c0-.1-.1-.2-.2-.3h0c-.3-.5-.6-.9-.8-1.3-.7-1-1.4-2-1.4-3.7h0c0-1.3-.1-2.7,1.2-3.2.2,0,.4,0,.5-.1h.5c1.3.2,1.6,1.4,1.9,2.3,0,.2,0,.3.1.4.1.2.5.8,1,1.3.3.3.6.6.8.8.1,0,.3.2.5.3s.4.3.5.4v-.2c0-.2-.1-.5-.1-.7v-2h0q0-3-.7-3h-1.6c-.8,0-1.1-.3-1.6-.6-.2,0-.3-.2-.5-.3l-.4-.6c-.2-2.3,0-2.7.5-3.7.1-.2.2-.5.3-.7.1-.4.3-.9.3-1.5l-.7.6c-1.3,0-1.9-.3-2.7-.7-.2,0-.4-.2-.6-.3l-.6-.3s-.1,0-.3-.2l-.8-.5s.2.1.2.2c.5.4,1,.8,1.9,2.6,0,.2.2.4.2.5,0,.2.1.4.2.6,0,.3.2.6.3.8.3.7.6,1.3.3,2.1-.6,1.5-1.5,1.4-3.2,1.3h-1.3l-.5-.3c-1.2-1.5-1.1-2.1-1.1-2.5s0-.2-1-1.1c-.4-.4-.6-.7-.8-.9h0l-.5-.4c0-.1-.2-.4-.4-.7-.5-.7-1.1-1.6-1.3-2.4,0-.2,0-.3-.1-.4,0-.2,0-.4-.3-.7-.4-.7-.6-.8-.8-1.1-.2-.2-.3-.4-.6-.7h-.1q-.2-.4-.3-.5s0-.1-.1-.2c0,0,0-.2-.2-.4l-.9-1.4c-.4-.6-.6-.9-.7-1.2-.2-.4-.4-.9-1.6-2.2h0l-1.1-1.4c-1.6-2-2.5-3.1-4.1-5.7-1.9-2.2-2.9-3.8-4.6-6.4h0c-.2-.4-.5-.7-.7-.9-.3-.3-.5-.5-.8-.9s-.5-.7-.7-1.1c-.2-.3-.4-.6-.6-1h-.1c-.7-1.1-.8-1.3-.7-2.3-.3,0-.5,0-.7-.2-.4-.2-.7-.5-1.1-.9-.2-.3-.4-.6-.5-.9-.2-.3-.3-.6-.6-.9l-.5-.4c-1-1-1.9-1.8-2.3-3.5-.1-.7,0-.7-.1-.7-.2,0-.5-.2-1-.5-.4-.3-.6-.7-.9-1.3-.1-.3-.2-.6-.4-1-.1-.3-.4-.5-.7-.8-.8-.7-1.6-1.5-1.6-3.4l.6-.7h2.1v-.2c-.2-.5-.3-1,.2-1.7.2-.3.4-.5.5-.6v-1c0-1-.2-1.4-.6-2-.2-.3-.5-.7-.7-1.3-.4-.7-.4-1.2-.4-1.5v-.5s-.3-.3-.5-.5-.5-.4-.7-.6h0l-2-3.2v-.3c-.1-.4-.2-.4-.2-.5-.2-.2-.5-.5-.9-1.3-.7-1.4-.9-1.9-.9-2.2h-.2c-.2-.2-.4-.3-.6-.5l-.2-.2-3.5-4.6v-.2c-.2-.2-.2-.4-.3-.5-.8-.5-1.7-1.4-2.5-2h-.1c-.3-.5-.3-.6-.3-.8v-.2c-.1-.3-.2-.4-.3-.4-.5-.4-.8-.6-.3-2.3l.6-.5h2.5c.6,0,.9-.3,1.1-.5s.4-.3.7-.5c.5-.2,1.3-.3,2.3-.3s3.1,0,4,.2l.7.7c0,1.8-.4,1.8-1,1.8s.3,0,.3,1l-.7.7h-1.5c-.1,0-.2,0-.2.4h0v.2c.6.7.7,1.3.8,1.8,0,.2,0,.4.3.3h0c.2-.2.3-.3,1.1-.4l.7.3c.6,1,.9,1.7,1.1,2.3.3.8.5,1.6,1.9,2.7.2,0,.4.3.5.4.2,0,.3.3.5.4h0l1.5,2.1v.2c.2.2.2.5.3.8,0,.2,0,.4.1.6,0,.2.4.6.8,1,.5.5,1,1,1.3,1.2.5.3.9.7,1.1,1.1s.3.9.4,1.5c0,.3.1.7.3.9,0,0,0,0,.1.2h0v-1.2c0-1.9,0-4.5,2.5-4.7.4,0,.9,0,1.2.2.4.2.9.5,1.1.7l.2.6c-.2,1.4-.8,1.6-1.4,1.8-.2,0-.4,0-.4.9,0,0,.1,0,.2,0,.2,0,.4.2.8.8h3.9c.3,0,.4,0,.4-.2.2-.2.4-.4.9-.6,1.4-.4,2.6,1,3.6,2,.3.3.6.6.7.8.4.3,1.6.2,2.6.2h1.3l.4.2.8.7h0s.2,0,.3,0h.3c1.2.7,2,1,2.5,2.1,0,0,.1.2.2.3.2.4.5,1.1.9,1.2h.5c.8,0,2.1,0,2.9.4,1,.5,1.5,1.4.6,3.1,0,0-.1.2-.2.3-.3.6-1.1,1.8-.5,2.4.3.3.9.4,1.6.5h1.7s0-.2.1-.2c0-.2.2-.3.3-.5.4-.5.7-.6,1-.7,0,0,.2,0,.3,0h.1q0-.2.2-.3h0c.3-.4.3-.6.3-.8q.2-.9,1.8-.9l.7.7c0,1,0,1.7-.1,2.3-.1,1.1-.2,1.9.4,3.8.3,1,1.2,1.8,2.1,2.5.8.7,1.6,1.3,2.1,2.2.2.3.3.5.4.9.2.6.5,1.3,1.1,2.1,1.5,1.8,1.1,2.9.8,4.1-.2.6-.3,1.2-.1,2,0,.2.1.3.2.3.3.3.8.7,1.3,2.8,1,3.7.3,4.5-.8,4.8-.2,0-.5,0-.7.1-.5,0-1,.1-1.1,1v4.4c.1.2.6.6,1.1,1,1.5,1.1,3.7,2.7,4.3,6,.5.2.7.4,1.1.9l.3.3c.1.2.6.5,1,.9.8.7,1.8,1.5,2.1,2.1.4.7.3,1.3.3,1.8s0,.9.5,1.1c.2,0,.4.2.6.2s.4.1.6.2l.4.6v1.9l-.3.6c-.5.3-.9.3-1.2.4-.3,0-.5,0-.6.3s-.1.5,0,.8c0,.6,0,1.1-.6,2-.3.4-.5.7-.7.9-.7.8-1.1,1.3-.9,3.3,0,.2.2.8.5,1.6.3,1,.7,2.3.9,3.3,0,.2.1.5.2.7,0,.2,0,.3.1.5.1.5.1.8.1,1.1s0,.4.2.7c0,.1.2.2.2.3.2.2.3.3.3.6v.9h0c1.3.2,1.6.6,1.9.9h.1c.1.1.3.1.4.2.3,0,.5,0,.9.2.2,0,.5.2.8.4.2.1.5.2.6.3.2.2.5.4.8.6.4.3.8.6,1,.7.5.2,1.3.2,2,.1h1.2l.5.3c.9,1.1,1.3.9,1.7.7.4-.2.8-.3,1.3-.2h0c.5,0,1.7,1,2.8,2.2.8.9,1.6,1.9,1.8,2.6.4,1.3.5,2.5.6,3.6.2,2.2.3,3.7,4.1,3.6h0c.1-.3.3-.6.5-.9.1-.2.3-.3.4-.5.3-.4.7-.7.4-1.8v-.2s-.1-.1-.2-.3c-.4-1-.4-1.5-.4-2.1s.1-1.6-.9-3.9c0-.2-.2-.3-.2-.4-.2-.3-.3-.5-.4-1h0c0-.5-.1-.7-.2-.8-.2-.4-.2-.5,0-1.8v-.8c0-.6.1-1.3.4-1.9h0c.2-.5.3-.7.3-.8v-1.7q0-.8-.3-1.6c-.5-1-.5-1.7-.4-2.5,0-.8,0-1.5-1.1-2.7l-1.4-1.5c-.2-.2-.3-.4-.4-.5l-.2-.2v-1.1c1.6-2,2.4-1.5,3.2-.9.1,0,.2.2.3.2h1.6c1.6.4,2,1.9,2.4,3.3.1.5.3,1,.5,1.3.6,1.1.6,1.4.6,2.3v.6c.5.2,1,.5,1.3,1.1.1.2.2.4.3.5.1.2.1.3.6.4.2,0,.8,0,1.3-.2,1.2-.2,2.6-.5,3.3,0,.7.4.9,1.2,0,2.5-.3.4-.3.6-.3,1.2,1.1,1,1.3,1.4,1.6,2.2.1.3.3.7.6,1.3.4.9.7,2,1,3.1.1.5.3,1.1.4,1.5.4,1.2.3,2.6.3,4s0,3,.4,4.1c.4.8.4,1.4.4,2.1v.7c0,.3-.4,0-.2.2.1,0,.3.1.4.5h0c0,.1.3,1.4.3,1.4h0c0,.7.2,1,.3,1.2.1.3.2.5.3,1,.1.4.1.8.2,1.1,0,.4,0,.8.3,1.2.2.3.3.7.4,1.1.1.4.3.9.4,1.3.3,1.1,0,2-.2,3-.4,1.4-.7,2.8,1.6,4.6.3.3.4.4.6.5h1.7c1.9,0,3.4,0,5.4,1.1.4.2.5.3.6.4h.1c.3.1.7.3,1,.5.6.3,1.2.5,1.8.9.4.3,1,.4,1.7.6.8.2,1.6.4,2.3.9.3.2.7.4,1.1.6.6.3,1.3.6,1.8,1,.3.3.4.3.6.3s.3,0,.5.1l3.7,2.1c.7.4.8.5.9.7h0c.1,0,.5.2.8.2s.8.2,1.1.3c.3.2.8.2,1.4.3.7.1,1.4.2,1.9.5,1.2.7,1.5.8,2.1.9.2,0,.5,0,.8.2h.1l3,1.6c.6.3.7.4,1,.7,0,0,.2.2.4.4.1.1.3.2.5.2h.4c0-.3.4-.5,1.4-.7.8-.2,1.9-.2,3.1-.2,2.1,0,4.7,0,6.3-1,2.2-1.4,4.1-4.4,5.9-7,1.4-2.2,2.7-4.1,3.9-4.8h0l.9-.4h0l3.1-1c.5-.2,1-.4,1.5-.7.4-.2.7-.5.9-.8h0c.2-.3.3-.5.5-.8.4-.6.8-1.2,1.5-1.6,1-.6,2.6-.9,4.2-.9s4.3.2,5.6.6c1.1.3,1.3.5,1.9,1.2l.2.2c.9.9,1.4,1.5,2.7,1.9,1.1.3,2.1.9,2.9,1.7s1.5,1.7,1.8,2.8c.5,1.5-.5,2.9-1.4,4.1-.2.4-.5.7-.6,1-.2.4-.4.8-.5,1.1-.2.6-.4,1.1-.9,1.7-.4.5-1.1,1.7-1.6,3-.4,1-.8,2-.8,2.4s.1.8.3,1.1c.1.3.3.6.3,1.1.2,1.2,0,1.6-.3,2.1,0,.1-.1.3-.2.5,0,0,0,.2-.1.4,0,.3-.1.5-.2.7,0,0,0,.2-.2.2,0,0-.2.3-.3.5-.3.9-.1,2.3,0,3.4,0,.5.1.9.2,1.3,0,1.1,0,1.4-.2,1.8,0,.2-.1.3-.2.7-.1.8,0,1.4.3,2.1.2.8.5,1.6.3,2.8v.2l-.6,1.4c-.2.4-.4.8-.7,1.2-.2.3-.4.7-.6,1-.2.7-.5.9-.8,1.2,0,0-.2.1-.3.2l-5.8,5.6h-.2c-.6.4-1.2.5-1.8.5s-1.3.1-1.8.5c-.1,0-.3.2-.4.4s-.3.4-.3.5c0,.3-.1.7-.1,1.2v.9c-.1.8-.2,1.1-.4,1.5v.3c-.2.4-.3.8-.3,1.2v.7c-.1.7-.2,1.1-.4,1.5-.2.5-.3,1-.4,2.3v2c-.1,1.7-.1,2,1.8,3.3,1.6,1.1,1.5,2.2.8,3.3-.3.4-.7.8-1.1,1.3-.2.2-.3.4-.5.6-.4.5-.8.8-1.2,1-.5.2-1,.2-1.8.2l-.6-.3c-.6-1-.7-2.7-.7-3.3l-2-2.4c0-.1-.3.1-.6.1-.7,0-1.4,0-1.8-.3-.6-.4-.8-.4-1.5-.4h-7c-.2.2-.3.4-.9.6-.4.1-.7.1-1,.1s-.6,0-.8.1h-.1l-1.5.5c-.3.1-.3.2-.3.3-.3.5-.4.7-3,.7,0,.2-.2.4-.3.5-.2.3-.6.6-1,.8-.7.3-1.1.3-1.4.3s-.4,0-1,.7c-.5.5-1.1,1-1.6,1.5-.7.6-1.4,1.2-1.7,1.7v.2c-.1,0-.7,1.4-.7,1.4-.2.7-.4.9-.8,1.3l-1.1,1.1c-.3.4-.3.7-.4,1.1-.1.6-.2,1.1-.8,1.8-.8,1-.2,2.6.3,3.8.3.7.5,1.3.6,1.8v.9l1,1.3c.2.3.3.4.3.5h.1c0,.1.6.6.6.6.3.2.7.4,1,.6.4.2.8.3,1.2.4.3,0,.5.2.7.4.4.4.5.9.3,1.4,0,.4-.3.7-.5,1.1-.4.7-1.1,1.3-1.3,1.4-.2.1-.3.2-.4.2s-.2,0-.2.4v1.9c0,.9,0,1.8-.1,2.6-.1.4-.2.6-.2.7v.2c0,.2,0,.3-.1.5,0,.2,0,.3-.1.6-.1.4-.4,1-.7,1.5-.4.6-.8,1.3-1.2,1.7-.3.4-.6.8-.9,1.3s-.5,1-.6,1.4c0,.2-.1,1.1-.1,1.9s0,1.8-.2,2.3h0q-.2,1.2-.9,1.9c-1.1,1.1-1.2,1.6-1.3,1.9-.1.3-.2.6-.5.9-.5.5-.8.6-1.1.6l-.3.3c-.3.4-.8.8-1.2,1.1-1,.9-2,1.8-2,3v1.3c-.1,1-.5,1.4-.9,1.7-.2.2-.4.4-.4,1.6v.4c0,1.1,0,1.6-.2,2s-.5.5-.9.7c-.2,0-.5.2-.9.4-.3.2-.4.3-.4.3-.1.2-.2.4-.6.7-.5.4-.8.5-1.3.8l-.4.2c-.5.3-.8.8-1.1,1.3-.2.4-.4.7-.7,1.1l-2.4,2.3h0c-.3.3-.3.5-.4.6-.1.6-.3,1.1-1.5,1.8,0,1.6-.4,2.1-.7,2.6-.2.3-.4.6-.5,1.4-.3,3.4-1.3,4.2-2.4,5.1-.6.5-1.2,1-1.7,2.2,0,0,0,.2-.1.3,0,.3-.2.5-.3.7-.2.4-.4.5-.6.6,0,0-.2.1-.3.2-.2.2-.2.4-.2.5,0,.4,0,.8-.7,1.6-.5.5-.6,1.1-.7,1.8-.1.7-.3,1.3-.7,2.1l-1.3,2.7c-.2.4-.3.5-.4.7,0,0-.1.1-.2.3-1,1.8-1.2,1.9-2,2.2-.3,0-.6.2-1.3.6l-.5.3c0,.5,0,1.2-1.7,2.9h-.2c-.9.6-1.6,1.1-2.2,1.5-.6.5-1.1.8-1.6.9-.3,0-.5.1-.6.2-.2.1-.4.4-.8.8s-.3.4-.5.6c-.7.9-1.4,1.8-3.2,2.3h-.3c0,.2-.1.2-.3.3h-.1c-.2.3-.6.6-1,.9-1,.7-2.3,1.7-2.8,2.4l-.5.3h-2.2c-.6.9-.8.9-1.3.8h-.6s-.1,0-.2.1c-.4.3-.9.7-2.3.5-.5,0-.9-.3-1.2-.6-.4-.3-.6-.8-.8-1.1-.3-.8-.2-1.7-.2-2.7s0-2.4-.4-2.9l-.3-.3s-.2,0-.4-.2c-.6-.3-1.4-.8-2.1-1.3-.4-.3-.9-.7-1.1-1h-.8c-.4.4-.8.8-1.3,1.2-.6.4-1.2.8-1.9,1l-.8-.2c-.2-.3-.6-.4-.8-.4-.9-.2-1.7-.4-1.8-2.6,0-.6,0-1.3.1-1.9,0-.7.2-1.3.1-1.9,0,.1-.1.3-.2.5-.2.4-.2.8-.2,1.3s0,.6-.1,1l-.5.6c-1.4.4-2.4.1-3.6-.3l-.5-.2c-.6-.2-1.2-.5-1.8-.9-.6-.4-1.1-1-1.5-1.5v-.7c.6-1.8,1.7-2.4,2.4-2.9.2-.1.4-.2.4-.3h0c.1-.1,1.8-1.6,2-2.3.3-.9.5-1.5.8-2s.8-1,1.6-1.5c.8-.5.8-.7.9-.9.1-.4.3-1,1.2-2,.6-.7,1.1-1,1.5-1.2.3-.2.5-.2.5-1.4,0-3.1,1.1-3.8,2.1-4.5.4-.3.7-.5.9-.9.2-.3.3-.6.5-.9.1-.3.3-.6.4-.9l.7-1.9c.2-.5.4-.7.5-.9,0,0,.1-.2.2-1h0c.1-.6.3-1,.5-1.5s.5-1,.6-1.7c0-.5.3-.9.5-1.2,0-.2.2-.3.2-.5s.1-.5.2-.7c0-.4.2-.8.4-1.4l.3-.6v-.7l.5-4h0c.1-.5,0-1.1,0-1.7v-2c0-1.6,0-3.3-.2-4.8h0c0-.4,0-.8-.1-1.1,0-.4,0-.8-.1-1v-.2c-.2-.2-.5-.4-.6-1.4v-.4l.9-2.2c.1.3.2.6.3.9.1.5.2,1,.3,1.6q0,.5.1.5c.2.2.4.3.5,1,0,.4.1.8.1,1.3v.9c.3,1.6.3,3.4.2,5.1v2c0,.6,0,1.3-.1,1.9l-.5,4v.3q0,.3-.2.8h0l-.3.7c-.2.3-.2.6-.3,1,0,.3-.1.6-.3,1,0,.2-.2.4-.2.6-.1.3-.3.6-.3.9-.2.8-.4,1.4-.7,2-.2.4-.3.7-.4,1.1-.1,1.3-.3,1.5-.6,1.8,0,0-.2.2-.3.5l-.7,1.9c-.1.3-.3.7-.4,1-.2.3-.3.6-.5,1-.4.7-.9,1.1-1.4,1.4-.7.5-1.5,1-1.5,3.3s-.5,2.2-1.3,2.6c-.3.1-.6.3-1.1.8-.7.8-.8,1.2-.9,1.5-.2.6-.3.9-1.5,1.7-.6.4-.9.7-1.1,1-.2.4-.4.9-.6,1.6-.3,1.1-2.3,2.8-2.5,3h0c-.2.2-.4.3-.7.5-.5.3-1.3.7-1.8,1.8.3.3.6.6,1,.9s.9.6,1.3.7c.3,0,.4.1.6.2.8.3,1.5.5,2.3.4v-.4c0-.6.1-1.1.3-1.7.7-1.8,1.1-1.8,1.8-1.7h.1l.6.4c.5,1,.4,2.2.2,3.4,0,.6-.2,1.2-.1,1.7,0,1.1.4,1.2.7,1.3.4,0,.8.2,1.2.5.4-.2.7-.4,1.1-.7.5-.4.9-.8,1.3-1.2l.5-.3h1.5l.6.3c.2.2.6.6,1,.9.6.5,1.4.9,1.9,1.2.2,0,.3.1.3.1q.3.1.8.6c1,.9.9,2.5.8,4,0,.9,0,1.7.1,2.2,0,.2.2.3.4.5.1.1.3.2.5.3.8.1,1,0,1.2-.2.2-.1.4-.3.6-.4.7-.3,1.1-.2,1.3-.1.2,0-.2,0,0-.4l.5-.3h2.2c.7-.9,1.9-1.8,2.8-2.5.4-.3.8-.6,1-.7h0l.2-.2c0-.1.1-.2.3-.3.1,0,.2,0,.3-.1h.4c1.3-.3,1.9-1.1,2.5-1.8h0c.2-.2.3-.4.5-.6l1.1-1.1c.4-.2.7-.3,1.2-.4.3,0,.6-.3,1.1-.7.6-.4,1.3-1,2.3-1.5,1.2-1.2,1.2-1.5,1.2-1.7,0-.6,0-.9,1.1-1.6.8-.5,1.2-.6,1.5-.7.4-.1.4-.2,1.2-1.5.1-.3.2-.4.3-.5,0,0,.1-.1.2-.4.4-.6,1-2.1,1.3-2.8.3-.5.4-1.1.5-1.7.2-.9.4-1.7,1.1-2.5.3-.3.3-.5.3-.6,0-.4,0-.8.6-1.4s.4-.3.5-.4c0,0,.1,0,.2-.2,0,0,0-.2.1-.4,0-.2,0-.3.1-.4.6-1.5,1.3-2.1,2-2.7.8-.7,1.6-1.4,1.9-4.2.1-1.2.4-1.7.7-2.1.2-.3.5-.7.5-2.2l.4-.6c1-.4,1.1-.7,1.1-1s.2-.8.8-1.4l2.3-2.3c.2-.2.4-.5.6-.8.4-.7.8-1.4,1.7-1.8l.4-.2c.4-.2.6-.3,1-.6.2-.1.2-.2.3-.3.1-.3.3-.5.9-.9.4-.2.8-.4,1-.5.2,0,.3,0,.3-.1v-1.7c0-1.8.4-2.2.9-2.6.2-.2.3-.3.4-.8v-1.2c0-1.8,1.3-3,2.5-4,.4-.3.8-.7,1.1-1,.6-.7,1-.7,1.3-.8l.2-.2s0-.2.1-.3c.2-.5.4-1.2,1.7-2.5q.4-.4.5-1h0c0-.6.1-1.4.1-2.2s0-1.9.2-2.3c.2-.5.4-1.1.7-1.7.3-.6.7-1.1,1-1.5s.7-.9,1-1.5c.3-.4.5-.9.5-1.1v-.4c0-.2,0-.4.2-.7,0-.2,0-.3.1-.3,0,0,0-.1.1-.4.2-.6.1-1.4.1-2.3v-2.2c.2-1,.4-1.2,1-1.5,0,0,.2,0,.3-.2,0,0,.5-.5.8-1,.1-.2.3-.4.3-.6h-.1c-.4-.1-.9-.3-1.3-.5s-.9-.4-1.3-.7h0c-.1-.2-.7-.6-.7-.6-.4-.3-.4-.4-.5-.6v-.2c-.1,0-1.2-1.4-1.2-1.4v-.3c-.2-.3-.2-.6-.2-.9v-.4c0-.3-.3-.8-.5-1.3-.6-1.6-1.4-3.6-.1-5.2.3-.4.4-.8.5-1.2.1-.5.2-1,.7-1.6h0c.4-.5.7-.9,1.1-1.2.2-.2.4-.4.5-.8l.6-1.5h0v-.2s0-.2.2-.3c.5-.7,1.2-1.3,2-1.9.6-.5,1.1-.9,1.5-1.3,1-1.1,1.4-1.1,2-1.2.2,0,.5,0,.9-.2.2,0,.4-.2.5-.3.1-.2.2-.4.4-.7l.7-.4h2.2c.1-.2.3-.5,1-.8h0l1.5-.5c.5-.2.9-.2,1.3-.3h.9c.3-.3.5-.6,2.1-.6h5.9c1.1,0,1.3,0,2.4.6h1c.7,0,1.4,0,1.7.5l2,2.5c.3.2.2.4.3.7,0,.4,0,1.6.4,2.3h.8c.2,0,.4-.3.7-.6l.6-.6c.4-.4.7-.7.9-1.1.3-.4.3-.8-.4-1.3-2.7-1.8-2.6-2.1-2.5-4.6v-2c0-1.5.2-2,.4-2.7.1-.3.2-.7.3-1.3v-.7c0-.5.1-1,.3-1.5v-.4c.3-.4.3-.5.4-1.2v-.8c0-.6,0-1.1.2-1.6,0-.3.3-.6.5-.9.2-.3.5-.6.7-.7.9-.6,1.7-.7,2.5-.8.4,0,.8,0,1.2-.2l5.7-5.5c.1-.1.3-.2.4-.3.2-.1.3-.2.3-.5h0c.2-.6.5-1,.7-1.4.2-.3.4-.7.6-1l.5-1.3c.1-.8,0-1.4-.3-2.1-.2-.8-.4-1.5-.3-2.6,0-.5.2-.8.3-1,0-.2.2-.4,0-1.2,0-.3,0-.8-.2-1.2-.2-1.3-.5-2.8,0-4.1.2-.5.4-.8.5-.9v-.3c.1-.2.2-.4.2-.6,0-.3.2-.5.3-.6.2-.3.3-.5.2-1.3,0-.3-.1-.5-.2-.7-.2-.4-.4-.8-.4-1.6s.4-1.8.9-2.9c.6-1.3,1.3-2.7,1.8-3.3.4-.5.5-.9.7-1.4.1-.4.3-.8.6-1.3.2-.4.4-.7.7-1.1.7-.9,1.4-2.1,1.2-2.9-.3-.8-.8-1.6-1.4-2.2-.7-.6-1.5-1.1-2.3-1.3-1.7-.5-2.3-1.1-3.4-2.3l-.2-.2c-.4-.4-.6-.6-1.3-.8-1.2-.3-3.3-.6-5.2-.6s-2.7.3-3.5.7c-.4.3-.7.7-1,1.2-.2.3-.4.5-.6.8h0c-.3.5-.8.9-1.3,1.2-.6.4-1.2.6-1.8.8l-3.1,1-.8.4c-.9.6-2.1,2.4-3.5,4.4-1.8,2.7-3.9,5.8-6.3,7.4-1.9,1.2-4.8,1.2-7.1,1.2s-2.1,0-2.8.1c-.3,0-.3-.4-.3-.3,0,.2,0,.5-.5.7-.4.3-.9.3-1.4.3s-1-.3-1.3-.6-.4-.4-.5-.6c0,0,0-.1-.4-.3l-3-1.5c-.3,0-.5-.1-.7-.2-.7-.1-1.1-.2-2.5-1-.3-.2-.9-.3-1.4-.4-.6-.1-1.3-.2-1.8-.5-.1,0-.4-.1-.7-.2-.5-.1-1-.2-1.3-.5-.3-.2-.3-.3-.4-.4l-.3-.2-3.7-2.1h-.1c-.3,0-.6-.1-1.2-.6-.4-.3-.9-.6-1.5-.8-.5-.2-.9-.4-1.3-.7-.5-.3-1.2-.5-1.9-.7-.7-.2-1.5-.3-2.1-.8-.5-.3-1-.5-1.6-.8s-.8-.3-1.1-.5c-.4-.2-.4-.3-.5-.4h-.2c-1.7-1.1-3-1-4.7-1h-2.1l-.5-.2v-.2q-.3-.2-.6-.4c-3-2.4-2.5-4.3-2-6.1.2-.8.4-1.5.2-2.3,0-.4-.2-.8-.3-1.2-.1-.3-.2-.6-.4-.9-.3-.7-.4-1.1-.4-1.6s0-.6-.2-.9c0-.3-.2-.5-.3-.7-.2-.4-.3-.7-.4-1.5l-.3-1c-.2-.1-.3-.3-.4-1.2v-.8c0-.6,0-1.1-.3-1.7-.6-1.4-.6-3.1-.5-4.7,0-1.3,0-2.6-.2-3.6-.2-.5-.3-1.1-.4-1.6-.3-1-.5-2.1-.9-2.8-.3-.7-.5-1.1-.6-1.5-.2-.6-.3-.9-1.4-1.8l-.2-.5v-.3c0-.9,0-1.2.5-2,.3-.4.4-.5.4-.6-.3-.2-1.4,0-2.3.2-.7.1-1.4.2-1.8.2-1.2-.2-1.4-.5-1.7-1.2,0-.1-.1-.3-.2-.4-.2-.3-.5-.4-.9-.6h-.1l-.5-.7v-1.2c0-.5,0-.7-.4-1.6-.3-.5-.4-1-.6-1.6-.3-1-.6-2.1-1.4-2.3h-1.5c-.4,0-.6-.3-.8-.4s-.4-.3-1,.2c0,0,0,.1.2.3l1.5,1.5c1.7,1.6,1.6,2.7,1.5,3.8,0,.5,0,1.1.3,1.8q.5,1.1.5,2.2v2c0,.3-.2.6-.4,1.1h0c-.2.4-.2,1-.3,1.5,0,.3,0,.7-.1,1q-.2.9-.1,1c0,.2.2.5.3,1.1,0,.2.1.3.2.5s.2.3.4.7c1.1,2.6,1,3.7,1,4.5s0,.8.2,1.5h0c0,.1.2.2.3.7.6,1.9,0,2.6-.7,3.2-.1.1-.2.2-.3.3-.1.2-.3.5-.4.7,0,.1-.1.3-.2.4l-.6.4c-5.5.2-5.7-1.8-6-4.9,0-1-.2-2.1-.6-3.3-.2-.5-.8-1.3-1.5-2.1-.8-.9-1.7-1.7-1.9-1.7s-.4,0-.6.1c-.8.3-1.7.7-3.1-.9h-.7c-.9,0-1.8,0-2.6-.2-.5-.2-.9-.6-1.4-1-.2-.2-.5-.4-.6-.5,0,0-.3-.1-.4-.2-.3-.1-.5-.3-.7-.3s-.4-.1-.5-.1c-.3,0-.5,0-.8-.2s-.4-.3-.6-.5c-.1-.2-.3-.3-1.5-.4l-.7-.7v-1.3h0s-.1-.2-.3-.4c-.4-.6-.4-1-.4-1.5v-.8c0-.1,0-.3-.1-.4,0-.2-.1-.5-.2-.8-.2-.9-.6-2.1-.9-3.1-.3-.8-.5-1.5-.5-1.9-.2-2.6.3-3.2,1.3-4.3.2-.3.5-.5.7-.8.3-.5.3-.7.3-1s0-.8.2-1.4c.4-1,1-1.1,1.7-1.2h.4v-.9h-.1c-.2,0-.5-.2-.7-.3-1.6-.7-1.5-1.6-1.4-2.5v-1c-.2-.3-1-1.1-1.8-1.7-.5-.4-1-.8-1.2-1.1l-.3-.4c-.3-.4-.4-.5-.8-.6l-.5-.6c-.4-3.1-2.4-4.5-3.8-5.5-.8-.6-1.5-1.1-1.7-1.7v-4.9c.3-2,1.4-2.1,2.4-2.2h.5c.4,0,.5-.6-.2-3.1-.5-1.7-.7-1.9-.9-2.1-.2-.2-.4-.4-.6-1-.3-1.1,0-2,.2-2.7.2-.8.4-1.6-.5-2.8-.8-.9-1.1-1.8-1.4-2.5-.1-.3-.2-.5-.3-.7-.4-.7-1.1-1.3-1.8-1.9-1.1-.9-2.2-1.8-2.6-3.2-.6-2.2-.5-3.1-.4-4.3v-.8c0,0-.1.2-.2.4h0q-.1.2-.3.4h0c0,0-.1.2-.2.2-.4.3-.6.4-.8.4,0,0-.1,0-.2.2,0,0-.1.2-.2.3-.1.2-.2.5-.5.7l-.5.2h-2.3c-.9,0-1.8-.4-2.4-.9-1.5-1.4-.3-3.3.3-4.2v-.2c.5-.7.4-1,.1-1.2-.6-.3-1.6-.3-2.3-.3h-.9c-1-.3-1.5-1.3-1.8-2,0,0,0-.2-.1-.2-.3-.6-.9-.9-1.9-1.3h-.3c0-.2-.1-.2-.2-.2s-.2,0-.4-.2h-.1l-.7-.7h-.9c-1.3,0-2.7,0-3.5-.5-.3-.2-.6-.5-.9-.9-.7-.8-1.7-1.8-2.2-1.6-.2,0-.2,0-.3.2-.2.3-.4.5-1.2.7h-1.7c-1.1,0-2.4,0-2.9,0l-.5-.3q-.3-.5-.4-.5c-.2,0-.4,0-.9-.6l-.2-.5c-.1-2.1.6-2.4,1.4-2.6.1,0,.3,0,.4-.3-.1,0-.2,0-.3-.2-.2,0-.4,0-.6,0-1.3,0-1.3,1.9-1.2,3.3,0,1,0,1.8-.4,2.2h-.2c-.3.3-.5.4-.8.4s-.7,0-1-.2c-.2-.2-.4-.4-.6-.6-.2-.4-.4-1-.4-1.5s-.1-.8-.2-1.1c0-.2-.3-.4-.5-.5-.4-.3-1.1-.8-1.6-1.4s-1-1.2-1.1-1.6c0-.2-.1-.5-.1-.8v-.5l-1.4-1.9c-.1,0-.3-.2-.4-.3-.2,0-.3-.2-.4-.3-1.8-1.4-2.1-2.3-2.4-3.4-.1-.5-.3-.9-.6-1.5-.1,0-.3.2-.6.2-1.7.4-1.8-.4-2-1.5,0-.2,0-.5-.2-.8-.2,0-.3-.2-.6-.5,0,0-.1-.2-.1-.5v-.3h0c0-1.7.5-1.9,1.7-1.9h.8c0-.8.2-1.2.4-1.4-.9,0-2,0-2.9,0-.8,0-1.5,0-1.7.2-.2,0-.3.2-.4.3-.4.3-.8.6-1.7.8h-2.1v.3c.2.2.5.4.8,1,0,.2.1.4.1.5l2.2,1.8c.1,0,0,0,0,0h0c.2,0,.3,0,.5.3h0q0,.2.1.3v.4c.1,0,3.5,4.5,3.5,4.5l.5.4c.4.3.5.3.7.6.1.2.1.3.2.5,0,.2.1.6.8,1.9.4.7.6.9.7,1,.3.3.4.4.5,1.2h0l1.2-1.7ZM146.6,120.9l1.5-1.4h0c.7-.6,1.9-.5,2.8-.4h.3l.6.5c.2.7.2,1.2.2,1.5s0,.7.6,1.4l2.7,2.5v.9c-.9,1.3-1.1,1.3-1.7,1.4-.2,0-.5,0-1.1.3s-.5.2-.7.4h-.2c-.5.3-1.1.5-1.6.7h-1l-.5-.3c-.2-.3-.3-.6-.4-.9-.2-.5-.4-1.1-.9-1.3-.3-.2-.5,0-.6.1v-1.7c.3,0,.7,0,1.2.3,1.1.5,1.4,1.4,1.7,2.1v.3c.8,0,1.2-.3,1.7-.5.3-.2.5-.3.9-.5.8-.3,1.3-.4,1.6-.4s.2,0,.4-.3l-2.3-2.1h0c-1-1.2-1-1.8-1-2.5v-.7h-1.6l-2.2,2.1h0v.2c-.1,0-.1-1.9-.1-1.9h0l-.3.2ZM146.6,129.9c0,.1.1.2.2.2.1.2.2.3.2.4-.1,0-.3.2-.4.3v-.9h0ZM149.4,136.8c.2.2.3.3.4.4.4.3.6.5.7,1v5c.1.2.3.5.5,1.1.4,1.2.5,1.6.6,2.1,0,.2.1.5.2,1,0,.3.2.6.3.8.1.3.3.6.4,1l.6,1.9v.4c.1,0,.2.2.2.2l.4,1.5v.2c0,3.6,0,3.7-.5,4.2-.2.2-.4.4-.8,1.3-.1.3-.3.6-.4.8-.3.4-.5.8-.2,1.3s.5,1.2.6,1.8v.5q.1.2.2.2c.2,0,.5,0,.9.2l.4.6c0,.7,0,1.3-.2,1.9-.2.5-.4,1-.7,1.6,0,.2-.2.3-.3.5-.2.2-.3.5-.2.7h.3c.3,0,.6,0,.9.2l.4.9c0,.2-.1.3-.1.4,0,.2,0,.3-.2.4-.1.2-.2.2-.5.3h-.2c-1,.6-1.9.6-2.9.6q-.1.2-.1.3c0,.2,0,.5-.2,1.2-.2.6-.4.9-.5,1.1-.2.2-.2.3.3,2.5.6,2.5.5,2.6-.2,3.3h0c-.5-.1-1-.2-1.5-.3.2-.3.4-.5.6-.7s.3-.3-.1-2c-.6-2.8-.5-3,0-3.6,0-.1.2-.3.3-.7.1-.4,0-.5,0-.6,0-.4,0-.6.6-1.5l.6-.3h.3c.7,0,1.3,0,1.9-.2-.2,0-.4-.2-.6-.5-.7-1-.3-1.7.2-2.3,0-.1.2-.2.2-.3.3-.5.5-.9.6-1.3,0-.3.1-.6.2-.9h0c-.7,0-1.1-.1-1.3-1.3v-.5c0-.5-.2-1-.4-1.3-.7-1.2-.3-1.9.1-2.7.1-.2.2-.4.3-.7.5-1.2.8-1.6,1.1-1.8q.2-.2.1-3.1l-.3-1.3h0q-.1-.2-.2-.6c-.2-.6-.5-1.4-.7-2,0-.2-.2-.5-.3-.7-.2-.3-.3-.7-.4-1.1-.1-.5-.2-.8-.2-1.1,0-.5-.2-.8-.6-1.9-.2-.5-.3-.8-.4-.9-.1-.2-.2-.3-.2-.6v-4.8s0-.1-.2-.2c-.2-.1-.4-.3-.6-.6h.1c.3-.4.6-.6,1-.8h0l-.3-.2ZM147.3,189.6c0,.4-.1.7-.2,1.1-.2,1-.3,2.1-.4,3.2,0,.5,0,2.3-.2,3.7,0,1-.2,1.8-.3,2.1-.1.3-.3.4-.3.5l-.2.4c-.2.6-.3,1.2-.5,1.7-.2.6-.5,1.1-.9,1.7-.1.2-.2.3-.2.4,0,.2-.1.3-.3.5-.4.5-.8,1-1.3,1.5l-.9.9c0,.1-.2.3-.3.4-.6.9-1.4,1.8-2.6,2h-2v-1.4h1.8c.7-.1,1.2-.8,1.7-1.4.1-.2.2-.3.4-.5.3-.4.6-.7,1-1,.4-.4.8-.8,1.1-1.3,0-.1.1-.2.2-.3,0-.2.2-.4.3-.6.3-.5.5-.9.7-1.4s.3-1,.5-1.6c.2-.7.3-.8.5-1v-.2c.1,0,.2-.8.3-1.6.1-1.4.2-3.2.2-3.6,0-1.2.2-2.3.4-3.4.1-.7.2-1.4.3-2h.2c.5.3.8.6,1.1,1.1h-.1ZM128,211.9c-.5.2-1,.5-1.7,1.4-1,1.3-1.8,1.7-2.8,2.1-.7.3-1.6.7-2.8,1.6h-.1c-2.4,2.1-2.5,2.6-2.5,4.5v1.1c0,.5-.1.9-.2,1.3-.2.9-.2,1.5.7,2.4.8.8.8,1.1.8,1.5s0,.5.8,1.7h0c.5.8.8,1.2,1.1,1.5.3.3.6.5,1.3,1-.7,0-1.5,0-2.2.1h-.1c-.4-.5-.7-.9-1.3-1.7h0c-1.1-1.6-1.1-2.2-1.1-2.6,0,0,0-.1-.4-.5-1.5-1.5-1.3-2.3-1.1-3.7,0-.3.1-.7.1-1.2v-1.1c.1-2.4.1-3,3.1-5.4h.1c1.4-1.2,2.3-1.6,3.2-2,.8-.3,1.4-.6,2.2-1.6,1.1-1.4,1.7-1.6,2.5-2,0,0,.2,0,.3-.1v1.5h0v.2ZM140.1,240.5l.5.5c.4.5.6.9.9,1.4s.5,1.1,1.2,1.6c.1,0,.2.2.3.2,0,0,.2,0,.3.2,0,0,.2.2.2.3,1,1,1.9,1,2.6,1l.6,1.5h-.6c-1,0-2.2,0-3.7-1.5h0c-.2-.2-.3-.3-.5-.4-.9-.7-1.2-1.4-1.6-2.1h0v-2.5h0l-.2-.2ZM157.5,249.8l.2.2c.3.2.4.3.6.4.2,0,.4.2.8.4l1.2,1.1-.5,1.4-1.3-1.1-1-2.4h0ZM122.6,81.8v.2h0v-.2ZM138.8,103.9h0ZM257,216.3h0ZM273.9,172.2h0ZM219.1,159.9h0Z"/>
  <path class="cls-1" d="M192.8,228s33.3,1.4,48.3-15.7c0,0-27.9-3.4-38.1,5.1-4.1,3.4-7.7,5.1-10.7,6-.3-2.8-.7-5.7-1.1-8.5l3.2.5s68.2-19.5,87.1-64.2c0,0-58.7,11.8-73.6,35.9-6.1,9.9-12.5,15.9-18,19.5-1.3-7.1-2.8-14.1-4.5-21,1.4-.7,29.1-14.6,34-35.6,0,0-25.4,9.9-30.2,21.9-1.5,3.8-3.3,6.6-5.1,8.7-1.4-5.2-2.9-10.2-4.6-15.2,3.5-1.9,26.7-14.8,30.7-33.4,0,0-23.5,9.6-27.8,20.8-1.3,3.5-2.9,6.1-4.5,8-1.6-4.7-3.4-9.4-5.2-13.9,4.3-2.4,24.2-14.5,27.5-31.1,0,0-21.6,9.2-25.4,19.6-1.1,3.1-2.5,5.4-3.8,7.2-1.8-4.3-3.6-8.6-5.5-12.7,4.4-2.7,21.8-13.9,24.5-29,0,0-19.7,8.8-23,18.5-.9,2.8-2.1,4.9-3.3,6.5-1.9-4-3.8-7.9-5.8-11.7,4.3-2.8,19.4-13.3,21.5-26.8,0,0-17.8,8.5-20.6,17.4-.8,2.5-1.7,4.4-2.7,5.8-2-3.7-4-7.3-6-10.9,4.1-2.8,17-12.6,18.6-24.7,0,0-15.9,8.1-18.2,16.3-.6,2.1-1.4,3.8-2.2,5.2-2-3.5-4.1-6.9-6.1-10.1,3.7-2.7,14.8-11.8,15.8-22.6,0,0-14,7.8-15.8,15.1-.5,1.9-1.1,3.4-1.8,4.6-2.1-3.3-4.2-6.5-6.3-9.5,3.2-2.6,12.6-11.1,13-20.6,0,0-12.1,7.4-13.4,14-.3,1.6-.8,2.9-1.3,4-2.1-3.1-4.3-6.1-6.4-9,2.7-2.5,10.4-10.3,10.3-18.6,0,0-10.2,7.1-11,12.9-.2,1.4-.5,2.5-.9,3.5-2.2-3-4.3-5.8-6.4-8.6,2.1-2.2,8.3-9.5,7.7-16.6,0,0-8.3,6.7-8.6,11.8,0,1.2-.3,2.2-.5,3-2.3-2.9-4.4-5.6-6.5-8.2,1.5-2,6.2-8.7,5.1-14.7,0,0-6.4,6.4-6.2,10.7,0,1,0,1.8-.2,2.5-2.3-2.8-4.5-5.4-6.6-7.7.9-1.5,4.2-7.9,2.5-12.9,0,0-4.5,6-3.8,9.5.1.8.2,1.5.2,2.1-2.5-2.8-4.7-5.3-6.6-7.3h0s2.5-7-.2-11.3c0,0-2.6,5.7-1.4,8.4.3.6.4,1.2.5,1.7-1.9-2.1-6.6-8.7-8.6-9.3,0,0,1.3,3.9,3.1,4.7,2.1.9,3.4,3.3,4.7,5.2-.4-.2-.8-.5-1.3-.9-2.3-1.9-8.4-1.1-8.4-1.1,3.3,3.8,10.7,3.5,10.7,3.5h.1c1.7,2.4,3.4,4.8,5.1,7.2-.3-.2-.7-.5-1.1-.8-2.8-2.3-10.4-1.4-10.4-1.4,3.7,4.3,11.6,4.3,12.9,4.3,1.7,2.5,3.4,4.9,5.1,7.3-.4-.3-.8-.6-1.3-.9-3.3-2.8-12.3-1.7-12.3-1.7,4.4,5,13.5,5.1,15.3,5.1,1.7,2.4,3.3,4.9,4.8,7.3-.4-.3-.8-.6-1.2-.9-3.8-3.2-14.2-1.9-14.2-1.9,4.9,5.6,14.9,5.9,17.4,5.9,1.7,2.6,3.3,5.1,4.9,7.7-.5-.3-1-.7-1.6-1.2-4.3-3.6-16.1-2.2-16.1-2.2,5.5,6.3,16.9,6.7,19.8,6.7,1.7,2.7,3.3,5.3,4.9,8-.6-.4-1.2-.8-1.8-1.3-4.8-4.1-18.1-2.4-18.1-2.4,6.2,7,18.8,7.5,22.1,7.5,1.7,2.8,3.3,5.6,4.9,8.4-.7-.4-1.4-.9-2.1-1.6-5.3-4.5-20-2.7-20-2.7,6.8,7.7,20.7,8.3,24.4,8.3,1.7,3.1,3.4,6.1,5,9.1-.8-.5-1.7-1.1-2.6-1.9-5.9-4.9-21.9-2.9-21.9-2.9,7.5,8.5,22.8,9.1,26.8,9.1,1.8,3.4,3.4,6.7,5.1,10-1-.6-2.1-1.3-3.3-2.3-6.4-5.4-23.8-3.2-23.8-3.2,8.2,9.3,25,9.9,29.2,9.9,1.8,3.7,3.5,7.4,5.1,11.1-1.2-.7-2.6-1.5-4-2.7-6.9-5.8-25.8-3.5-25.8-3.5,8.9,10.1,27.3,10.7,31.7,10.7,1.8,4.2,3.5,8.3,5.1,12.4-1.5-.7-3.1-1.7-4.8-3.2-7.4-6.2-27.7-3.7-27.7-3.7,9.7,11,29.8,11.5,34.2,11.5,1.8,4.8,3.5,9.4,5,14-1.8-.8-3.7-2-5.8-3.7-7.9-6.6-29.6-4-29.6-4,10.6,12.1,32.9,12.3,36.9,12.2,1.7,5.4,3.2,10.7,4.6,15.8-2-.8-4.4-2.2-6.9-4.3-8.4-7.1-31.5-4.2-31.5-4.2,11.5,13.1,36.1,13.1,39.6,13,1.5,6.3,2.8,12.3,3.8,18.1-2.4-.8-5.2-2.3-8.2-4.9-8.9-7.5-33.5-4.5-33.5-4.5,13.2,15,42.4,13.8,42.4,13.8h0c1.2,7.8,2,15.2,2.4,22.2-3.8-1.2-8.3-3.5-13.3-7.7-13.6-11.4-50.8-6.8-50.8-6.8,19.9,22.7,63.8,21,64.3,21,1.5,51.7-17.2,77.3-17.2,77.3l17.1,12c10.9-35.3,13.4-69.1,10.3-100.7h0l-.2-.4Z"/>
  <path class="cls-2" d="M189.2,264.9c-2.5,0-4.8-.4-6.8-1.3s-3.7-2.2-5.1-3.9l4-3.5c1.2,1.3,2.4,2.3,3.8,2.9s2.9.9,4.6.9,1.3,0,1.9-.3,1.1-.4,1.6-.8.8-.8,1-1.2c.2-.5.3-1,.3-1.6,0-1-.4-1.8-1.1-2.4-.4-.3-1-.6-1.8-.9s-1.9-.7-3.2-1c-2.2-.6-4-1.2-5.5-2-1.4-.7-2.5-1.6-3.3-2.5-.6-.7-1-1.5-1.3-2.4s-.4-1.8-.4-2.8.3-2.4.8-3.5,1.3-2,2.3-2.8,2.1-1.4,3.5-1.8c1.3-.4,2.7-.6,4.2-.6s2.8.2,4.2.6c1.4.4,2.7.9,3.9,1.7,1.2.7,2.2,1.6,3,2.6l-3.4,3.7c-.7-.7-1.5-1.4-2.4-1.9-.9-.6-1.7-1-2.6-1.3s-1.7-.5-2.4-.5-1.5,0-2.2.2-1.2.4-1.6.7c-.4.3-.8.7-1,1.2s-.3,1-.3,1.6.2,1,.4,1.4c.2.4.5.8.9,1.1.4.3,1.1.6,1.9,1,.8.3,1.9.7,3.2,1,1.9.5,3.5,1,4.7,1.6s2.2,1.3,3,2,1.3,1.6,1.6,2.5c.3,1,.5,2,.5,3.2,0,1.7-.5,3.3-1.5,4.6-1,1.4-2.3,2.4-3.9,3.2-1.6.8-3.5,1.2-5.5,1.2h0ZM151.3,277.5l6.1-14.1v4.7l-15-34.1h6.9l9.4,22.2c.2.4.4,1,.7,1.8.3.8.5,1.6.7,2.3l-1.5.3c.3-.8.6-1.6.9-2.4s.6-1.6.8-2.4l7.9-21.8h7l-12.4,30.2-5.1,13.2h-6.4ZM123.7,259.4c1.8,0,3.4-.4,4.8-1.3s2.5-2.1,3.3-3.7,1.2-3.3,1.2-5.3-.4-3.7-1.2-5.2c-.8-1.5-1.9-2.7-3.3-3.6s-3-1.3-4.8-1.3-3.3.4-4.7,1.3c-1.4.9-2.4,2.1-3.2,3.6-.8,1.5-1.2,3.3-1.2,5.2s.4,3.8,1.2,5.3c.8,1.6,1.9,2.8,3.2,3.7,1.4.9,2.9,1.3,4.7,1.3ZM122.1,264.9c-2.5,0-4.8-.7-6.8-2.1-2.1-1.4-3.7-3.3-4.9-5.6-1.2-2.4-1.8-5.1-1.8-8.1s.6-5.7,1.9-8.1c1.2-2.4,2.9-4.2,5.1-5.6,2.1-1.3,4.5-2,7.2-2s3,.2,4.3.7,2.4,1.1,3.4,1.9,1.8,1.8,2.4,2.8c.6,1.1,1,2.2,1.2,3.5l-1.3-.5v-7.8h6v30.2h-6v-7.2l1.4-.4c-.2,1-.7,2-1.4,3-.7,1-1.6,1.9-2.7,2.6-1.1.8-2.3,1.4-3.6,1.8-1.3.5-2.7.7-4.2.7h0l-.2.2ZM86.2,239.8v-5.8h19.2v5.8h-19.2ZM92.4,264.3v-37.9h5.9v37.9h-5.9ZM66.7,264.9c-2.2,0-4.2-.3-6.1-.9s-3.5-1.4-5.1-2.6c-1.5-1.2-2.9-2.6-4.1-4.3l4.3-4.9c1.9,2.7,3.7,4.5,5.4,5.6,1.7,1,3.8,1.6,6.2,1.6s2.8-.2,4-.7,2.1-1.1,2.8-1.9c.7-.8,1-1.7,1-2.8s-.1-1.3-.3-2c-.2-.6-.6-1.2-1.1-1.7s-1.1-1-1.8-1.4c-.7-.4-1.6-.8-2.6-1.1-1-.3-2.1-.6-3.5-.8-2.1-.4-3.9-1-5.4-1.7s-2.8-1.6-3.9-2.6-1.8-2.2-2.3-3.5-.7-2.8-.7-4.5.4-3.1,1.1-4.5,1.7-2.6,2.9-3.6c1.2-1,2.7-1.8,4.4-2.4,1.7-.6,3.5-.8,5.5-.8s4,.3,5.7.8,3.3,1.3,4.6,2.4,2.5,2.3,3.3,3.9l-4.4,4.3c-.8-1.3-1.6-2.3-2.6-3.2-1-.9-2-1.5-3.2-2-1.2-.4-2.4-.7-3.7-.7s-2.8.2-3.9.7-2,1.1-2.6,1.9-.9,1.8-.9,2.9.2,1.5.5,2.2.8,1.3,1.4,1.8,1.5,1,2.6,1.4,2.4.8,3.9,1.1c2.1.5,4,1,5.6,1.8,1.6.7,3.1,1.5,4.2,2.5,1.2,1,2,2,2.6,3.2s.9,2.5.9,3.9c0,2.6-.6,4.8-1.8,6.7-1.2,1.9-2.9,3.3-5.1,4.3s-4.8,1.5-7.8,1.5h0Z"/>
  <path class="cls-2" d="M177.1,207.5c1.8,0,3.4-.5,4.8-1.4s2.5-2.2,3.3-3.8c.8-1.6,1.2-3.4,1.2-5.4s-.4-3.8-1.2-5.4c-.8-1.6-1.9-2.8-3.3-3.8-1.4-.9-3-1.4-4.8-1.4s-3.4.5-4.8,1.4-2.5,2.2-3.3,3.8-1.2,3.4-1.2,5.4.4,3.8,1.2,5.4c.8,1.6,1.9,2.8,3.3,3.8,1.4.9,3,1.4,4.8,1.4ZM176.3,212.7c-2.8,0-5.2-.7-7.4-2-2.2-1.4-3.9-3.2-5.2-5.6-1.3-2.4-1.9-5.1-1.9-8.1s.6-5.7,1.9-8.1c1.2-2.4,2.9-4.2,5.1-5.6,2.1-1.4,4.6-2,7.3-2s2.9.2,4.3.7,2.7,1.1,3.8,2c1.1.8,2,1.7,2.6,2.7s.9,2,.9,3h-1.7c0,.1,0-20.1,0-20.1h5.9v42.6h-5.9v-7.2h1.2c0,.9-.3,1.8-.9,2.7-.6.9-1.4,1.7-2.4,2.5s-2.2,1.4-3.5,1.8c-1.3.5-2.7.7-4.1.7h0ZM129.4,212.1v-30.2h5.9v6.2l-1,.7c.4-1.3,1.1-2.6,2.2-3.7,1.1-1.1,2.4-2.1,4-2.8,1.5-.7,3.1-1.1,4.7-1.1,2.3,0,4.2.5,5.8,1.4,1.5.9,2.7,2.3,3.5,4.1s1.2,4.2,1.2,7v18.4h-5.9v-18c0-1.7-.2-3.2-.7-4.3s-1.2-2-2.1-2.5-2.1-.7-3.6-.7-2.2.2-3.2.5c-1,.4-1.8.9-2.5,1.5-.7.7-1.3,1.4-1.7,2.3-.4.9-.6,1.8-.6,2.8v18.3h-6ZM106.2,207.2c1.8,0,3.4-.4,4.8-1.3s2.5-2.1,3.3-3.7,1.2-3.3,1.2-5.3-.4-3.7-1.2-5.2c-.8-1.5-1.9-2.7-3.3-3.6-1.4-.9-3-1.3-4.8-1.3s-3.3.4-4.7,1.3c-1.4.9-2.4,2.1-3.2,3.6-.8,1.5-1.2,3.3-1.2,5.2s.4,3.8,1.2,5.3c.8,1.6,1.9,2.8,3.2,3.7,1.4.9,2.9,1.3,4.7,1.3ZM104.6,212.7c-2.5,0-4.8-.7-6.8-2.1-2.1-1.4-3.7-3.3-4.9-5.6-1.2-2.4-1.8-5.1-1.8-8.1s.6-5.7,1.9-8.1c1.2-2.4,2.9-4.2,5.1-5.6,2.1-1.3,4.5-2,7.2-2s3,.2,4.3.7,2.4,1.1,3.4,1.9,1.8,1.8,2.4,2.8c.6,1.1,1,2.2,1.2,3.5l-1.3-.5v-7.8h6v30.2h-6v-7.2l1.4-.4c-.2,1-.7,2-1.4,3-.7,1-1.6,1.9-2.7,2.6-1.1.8-2.3,1.4-3.6,1.8-1.3.5-2.7.7-4.2.7h0l-.2.2ZM79.2,212.1v-42.6h5.9v42.6h-5.9ZM61.6,212.7c-2.5,0-4.8-.4-6.8-1.3s-3.7-2.2-5.1-3.9l4-3.5c1.2,1.3,2.4,2.3,3.8,2.9s2.9.9,4.6.9,1.3,0,1.9-.3,1.1-.4,1.6-.8.8-.8,1-1.2c.2-.5.3-1,.3-1.6,0-1-.4-1.8-1.1-2.4-.4-.3-1-.6-1.8-.9-.8-.3-1.9-.7-3.2-1-2.2-.6-4-1.2-5.5-2-1.4-.7-2.5-1.6-3.3-2.5-.6-.7-1-1.5-1.3-2.4s-.4-1.8-.4-2.8.3-2.4.8-3.5,1.3-2,2.3-2.8,2.1-1.4,3.5-1.8c1.3-.4,2.7-.6,4.2-.6s2.8.2,4.2.6c1.4.4,2.7.9,3.9,1.7,1.2.7,2.2,1.6,3,2.6l-3.4,3.7c-.7-.7-1.5-1.4-2.4-1.9-.9-.6-1.7-1-2.6-1.3s-1.7-.5-2.4-.5-1.5,0-2.2.2-1.2.4-1.6.7-.8.7-1,1.2-.3,1-.3,1.6.2,1,.4,1.4c.2.4.5.8.9,1.1s1.1.6,1.9,1c.8.3,1.9.7,3.2,1,1.9.5,3.5,1,4.7,1.6s2.2,1.3,3,2,1.3,1.6,1.6,2.5c.3,1,.5,2,.5,3.2,0,1.7-.5,3.3-1.5,4.6-1,1.4-2.3,2.4-3.9,3.2-1.6.8-3.5,1.2-5.5,1.2h0ZM24.1,212.1v-5.8h6.5v-28.8h-6.5v-5.8h19.2v5.8h-6.5v28.8h6.5v5.8h-19.2Z"/>
  <path class="cls-2" d="M139.3,159.9v-42.6h5.9v18.6l-1,.7c.4-1.3,1.1-2.6,2.2-3.7,1.1-1.1,2.4-2.1,4-2.8,1.5-.7,3.1-1.1,4.7-1.1,2.3,0,4.2.5,5.8,1.4,1.5.9,2.7,2.3,3.5,4.1s1.2,4.2,1.2,7v18.4h-5.9v-18c0-1.7-.2-3.2-.7-4.3s-1.2-2-2.1-2.5-2.1-.7-3.6-.7-2.2.2-3.2.5c-1,.4-1.8.9-2.5,1.5s-1.3,1.4-1.7,2.3c-.4.9-.6,1.8-.6,2.8v18.3h-6ZM114.6,135.4v-5.8h19.2v5.8h-19.2ZM120.9,159.9v-37.9h5.9v37.9h-5.9ZM92.8,159.9v-30.2h6v9.5l-.6-2.3c.4-1.5,1.1-2.8,2.2-4,1-1.2,2.2-2.1,3.5-2.8s2.7-1,4.1-1,1.3,0,1.9.2c.6.1,1.1.2,1.4.4l-1.6,6.4c-.5-.2-1-.4-1.5-.5-.6-.1-1.1-.2-1.6-.2-1,0-2,.2-3,.6-.9.4-1.8,1-2.5,1.7s-1.3,1.5-1.7,2.5c-.4.9-.6,2-.6,3.1v16.7h-6,0ZM71,155.1c1.8,0,3.4-.5,4.8-1.4s2.5-2.1,3.3-3.7c.8-1.6,1.2-3.3,1.2-5.3s-.3-3.8-1.2-5.3c-.8-1.6-1.9-2.8-3.3-3.7s-3-1.3-4.8-1.3-3.4.5-4.9,1.4c-1.4.9-2.6,2.1-3.4,3.7-.8,1.6-1.2,3.3-1.2,5.3s.3,3.7,1.2,5.3c.8,1.6,1.9,2.8,3.4,3.7,1.4.9,3.1,1.4,4.9,1.4h0ZM71,160.5c-3,0-5.6-.7-7.9-2-2.3-1.4-4.2-3.2-5.5-5.6-1.3-2.4-2-5.1-2-8.1s.7-5.7,2-8.1c1.3-2.4,3.2-4.2,5.5-5.6,2.3-1.4,5-2,7.9-2s5.5.7,7.9,2c2.3,1.4,4.2,3.2,5.5,5.6,1.3,2.4,2,5.1,2,8.1s-.7,5.7-2,8.1c-1.3,2.4-3.2,4.2-5.5,5.6-2.3,1.4-4.9,2-7.9,2ZM13.3,159.9v-40.3h5.6l24.6,33-.9.5c-.2-1-.3-2-.4-3.1-.1-1.1-.2-2.3-.3-3.6,0-1.3-.2-2.6-.2-4.1s-.1-2.9-.1-4.5v-18.1h6.2v40.3h-5.7l-24.2-31.8.6-.8c.2,2.3.4,4.3.5,6,.1,1.6.2,3,.3,4.1,0,1.1.2,2.1.2,2.8v19.7h-6.2Z"/>
</svg>